<svg xmlns="http://www.w3.org/2000/svg" viewBox="0 0 1280 672" width="1280" height="672">
  <path d="M 661.0,672.5 L 653.0,672.5 L 645.0,672.5 L 637.0,672.5 L 629.0,672.5 L 622.0,671.5 L 614.0,671.5 L 607.0,670.5 L 600.0,669.5 L 593.5,668.0 L 587.0,666.5 L 580.0,665.5 L 574.0,663.5 L 568.0,661.5 L 561.5,660.0 L 555.0,658.5 L 549.0,656.5 L 543.0,654.5 L 537.5,652.0 L 531.5,650.0 L 526.0,647.5 L 520.0,645.5 L 515.0,642.5 L 509.5,640.0 L 504.0,637.5 L 498.5,635.0 L 493.0,632.5 L 487.5,630.0 L 482.0,627.5 L 476.5,625.0 L 471.0,622.5 L 466.0,619.5 L 460.0,617.5 L 455.0,614.5 L 449.0,612.5 L 444.0,609.5 L 438.5,607.0 L 433.5,604.0 L 428.5,601.0 L 423.0,598.5 L 418.0,595.5 L 413.0,592.5 L 408.0,589.5 L 403.0,590.5 L 398.0,593.5 L 393.0,596.5 L 388.0,599.5 L 383.0,602.5 L 378.0,605.5 L 373.0,608.5 L 368.0,611.5 L 363.0,614.5 L 358.0,617.5 L 353.0,620.5 L 348.0,623.5 L 343.0,626.5 L 337.5,629.0 L 332.5,632.0 L 327.0,634.5 L 322.0,637.5 L 316.0,639.5 L 310.5,642.0 L 305.0,644.5 L 299.0,646.5 L 292.5,648.0 L 286.0,649.5 L 280.0,651.5 L 273.0,652.5 L 266.0,653.5 L 259.0,654.5 L 252.0,655.5 L 245.0,656.5 L 237.0,656.5 L 230.0,657.5 L 222.0,657.5 L 214.0,657.5 L 207.0,656.5 L 199.0,656.5 L 192.0,655.5 L 184.0,655.5 L 177.0,654.5 L 170.0,653.5 L 163.0,652.5 L 156.0,651.5 L 149.5,650.0 L 143.0,648.5 L 137.0,646.5 L 131.5,644.0 L 126.0,641.5 L 120.0,639.5 L 114.5,637.0 L 109.0,634.5 L 104.0,631.5 L 99.0,628.5 L 94.5,625.0 L 89.5,622.0 L 85.0,618.5 L 80.0,615.5 L 75.5,612.0 L 71.0,608.5 L 67.0,604.5 L 62.5,601.0 L 58.5,597.0 L 54.5,593.0 L 51.0,588.5 L 47.0,584.5 L 43.5,580.0 L 40.0,575.5 L 37.0,570.5 L 34.0,565.5 L 31.0,560.5 L 28.0,555.5 L 25.5,550.0 L 22.5,545.0 L 20.5,539.0 L 17.5,534.0 L 15.5,528.0 L 13.5,522.0 L 11.5,516.0 L 10.0,509.5 L 8.5,503.0 L 6.5,497.0 L 5.5,490.0 L 4.5,483.0 L 3.5,476.0 L 2.5,469.0 L 1.5,462.0 L 1.5,454.0 L 1.5,446.0 L 1.5,438.0 L 1.5,430.0 L 2.5,423.0 L 2.5,415.0 L 3.5,408.0 L 4.5,401.0 L 5.5,394.0 L 6.5,387.0 L 8.0,380.5 L 9.5,374.0 L 11.0,367.5 L 12.5,361.0 L 14.5,355.0 L 16.0,348.5 L 18.0,342.5 L 20.0,336.5 L 22.0,330.5 L 24.0,324.5 L 26.5,319.0 L 28.5,313.0 L 31.0,307.5 L 33.5,302.0 L 36.5,297.0 L 39.0,291.5 L 41.5,286.0 L 44.5,281.0 L 47.5,276.0 L 50.5,271.0 L 53.5,266.0 L 56.5,261.0 L 60.0,256.5 L 63.5,252.0 L 66.5,247.0 L 70.0,242.5 L 73.5,238.0 L 77.5,234.0 L 81.0,229.5 L 85.0,225.5 L 88.5,221.0 L 92.5,217.0 L 96.0,212.5 L 100.0,208.5 L 104.5,205.0 L 108.5,201.0 L 113.0,197.5 L 117.5,194.0 L 122.0,190.5 L 126.0,186.5 L 131.0,183.5 L 135.5,180.0 L 140.0,176.5 L 145.0,173.5 L 149.5,170.0 L 154.0,166.5 L 159.0,163.5 L 164.0,160.5 L 169.0,157.5 L 174.0,154.5 L 179.0,151.5 L 184.0,148.5 L 189.5,146.0 L 195.0,143.5 L 200.0,140.5 L 206.0,138.5 L 211.0,135.5 L 217.0,133.5 L 222.5,131.0 L 228.0,128.5 L 234.0,126.5 L 240.0,124.5 L 246.0,122.5 L 252.0,120.5 L 258.0,118.5 L 264.0,116.5 L 271.0,115.5 L 277.0,113.5 L 284.0,112.5 L 290.0,110.5 L 297.0,109.5 L 303.5,108.0 L 310.0,106.5 L 317.0,105.5 L 323.5,104.0 L 330.0,102.5 L 337.0,101.5 L 343.5,100.0 L 350.0,98.5 L 357.0,97.5 L 364.0,96.5 L 371.0,95.5 L 377.5,94.0 L 384.5,93.0 L 391.5,92.0 L 398.5,91.0 L 406.0,90.5 L 412.5,89.0 L 410.5,83.0 L 409.0,76.5 L 407.5,70.0 L 405.5,64.0 L 403.5,58.0 L 402.5,51.0 L 402.0,46.5 L 410.0,46.5 L 418.0,46.5 L 426.0,46.5 L 434.0,46.5 L 442.0,46.5 L 450.0,46.5 L 458.0,46.5 L 466.0,46.5 L 473.5,46.0 L 470.0,41.5 L 466.5,37.0 L 463.5,32.0 L 460.0,27.5 L 456.5,23.0 L 453.0,18.5 L 449.5,14.0 L 446.0,9.5 L 442.5,5.0 L 443.0,1.5 L 451.0,1.5 L 458.0,2.5 L 465.0,3.5 L 473.0,3.5 L 480.0,4.5 L 488.0,4.5 L 495.0,5.5 L 502.5,6.0 L 510.0,6.5 L 517.0,7.5 L 525.0,7.5 L 532.0,8.5 L 539.5,9.0 L 547.0,9.5 L 554.0,10.5 L 560.0,12.5 L 566.0,14.5 L 572.0,16.5 L 578.0,18.5 L 583.0,21.5 L 589.0,23.5 L 594.0,26.5 L 599.5,29.0 L 605.0,31.5 L 610.0,34.5 L 615.5,37.0 L 620.5,40.0 L 625.5,43.0 L 630.5,46.0 L 635.5,49.0 L 640.5,52.0 L 645.0,55.5 L 650.0,58.5 L 654.5,62.0 L 659.0,65.5 L 663.5,69.0 L 668.5,67.0 L 674.0,64.5 L 679.5,62.0 L 685.0,59.5 L 691.0,57.5 L 697.0,55.5 L 702.5,53.0 L 708.0,50.5 L 714.0,48.5 L 720.0,46.5 L 726.0,44.5 L 728.0,50.5 L 729.5,57.0 L 731.5,63.0 L 733.5,69.0 L 735.5,75.0 L 737.0,81.5 L 739.0,87.5 L 740.5,94.0 L 742.5,100.0 L 744.5,106.0 L 746.5,112.0 L 748.5,118.0 L 750.0,124.5 L 752.0,130.5 L 754.5,136.0 L 757.0,141.5 L 759.5,147.0 L 762.5,152.0 L 765.0,157.5 L 768.0,162.5 L 771.0,167.5 L 774.5,172.0 L 777.5,177.0 L 781.5,181.0 L 785.0,185.5 L 788.5,190.0 L 792.5,194.0 L 797.0,197.5 L 801.0,201.5 L 806.0,204.5 L 810.5,208.0 L 815.5,211.0 L 821.0,213.5 L 826.5,216.0 L 831.5,218.0 L 834.0,212.5 L 836.5,207.0 L 838.5,201.0 L 841.5,196.0 L 844.0,190.5 L 847.0,185.5 L 850.0,180.5 L 853.5,176.0 L 856.5,171.0 L 860.5,167.0 L 864.0,162.5 L 868.0,158.5 L 872.0,154.5 L 876.5,151.0 L 881.5,148.0 L 886.5,145.0 L 892.0,142.5 L 897.0,139.5 L 902.5,137.0 L 908.0,134.5 L 913.0,131.5 L 918.5,129.0 L 924.0,126.5 L 929.0,123.5 L 934.5,121.0 L 939.5,118.0 L 945.0,115.5 L 950.0,112.5 L 955.5,110.0 L 957.5,115.0 L 957.5,123.0 L 957.5,131.0 L 957.5,139.0 L 959.5,142.0 L 963.5,138.0 L 967.5,134.0 L 972.0,130.5 L 976.5,127.0 L 981.0,123.5 L 985.5,120.0 L 990.0,116.5 L 995.0,113.5 L 999.5,110.0 L 1004.5,107.0 L 1009.5,104.0 L 1014.5,101.0 L 1019.5,98.0 L 1024.5,95.0 L 1030.0,92.5 L 1035.0,89.5 L 1040.0,86.5 L 1046.0,84.5 L 1051.0,81.5 L 1057.0,79.5 L 1062.5,77.0 L 1068.5,75.0 L 1074.5,73.0 L 1081.0,71.5 L 1087.0,69.5 L 1094.0,68.5 L 1101.0,67.5 L 1109.0,67.5 L 1117.0,67.5 L 1125.0,67.5 L 1132.0,66.5 L 1140.0,66.5 L 1148.0,66.5 L 1156.0,66.5 L 1164.0,66.5 L 1172.0,66.5 L 1171.0,72.5 L 1168.5,78.0 L 1166.5,84.0 L 1164.5,90.0 L 1162.5,96.0 L 1160.0,101.5 L 1157.5,107.0 L 1155.5,113.0 L 1153.5,119.0 L 1151.5,125.0 L 1149.0,130.5 L 1146.5,136.0 L 1143.5,141.0 L 1140.0,145.5 L 1136.0,149.5 L 1132.0,153.5 L 1127.5,157.0 L 1123.0,160.5 L 1118.5,164.0 L 1114.0,167.5 L 1110.0,171.5 L 1105.5,175.0 L 1101.5,179.0 L 1097.5,183.0 L 1093.5,187.0 L 1089.0,190.5 L 1085.0,194.5 L 1081.0,198.5 L 1077.0,202.5 L 1073.0,206.5 L 1068.5,210.0 L 1064.5,214.0 L 1060.5,218.0 L 1057.0,222.5 L 1053.5,227.0 L 1050.0,231.5 L 1046.5,236.0 L 1043.5,241.0 L 1040.5,246.0 L 1037.0,250.5 L 1034.0,255.5 L 1031.5,261.0 L 1028.5,266.0 L 1025.5,271.0 L 1023.0,276.5 L 1020.5,282.0 L 1018.0,287.5 L 1015.5,293.0 L 1013.5,299.0 L 1011.5,305.0 L 1009.5,311.0 L 1007.5,317.0 L 1008.0,318.5 L 1011.0,313.5 L 1013.5,308.0 L 1016.0,302.5 L 1018.5,297.0 L 1021.5,292.0 L 1024.5,287.0 L 1028.0,282.5 L 1032.0,278.5 L 1036.0,274.5 L 1040.5,271.0 L 1045.5,268.0 L 1051.0,265.5 L 1057.0,263.5 L 1063.0,261.5 L 1070.0,260.5 L 1077.0,259.5 L 1085.0,259.5 L 1093.0,259.5 L 1100.0,260.5 L 1107.0,261.5 L 1114.0,262.5 L 1120.5,264.0 L 1127.0,265.5 L 1133.0,267.5 L 1138.5,270.0 L 1144.0,272.5 L 1149.5,275.0 L 1154.5,278.0 L 1159.5,281.0 L 1164.0,284.5 L 1168.5,288.0 L 1173.0,291.5 L 1177.0,295.5 L 1180.5,300.0 L 1184.0,304.5 L 1187.5,309.0 L 1190.5,314.0 L 1194.0,318.5 L 1197.5,323.0 L 1200.5,328.0 L 1204.0,332.5 L 1207.0,337.5 L 1210.5,342.0 L 1213.5,347.0 L 1217.0,351.5 L 1220.5,356.0 L 1223.5,361.0 L 1227.0,365.5 L 1230.5,370.0 L 1235.0,373.5 L 1242.0,372.5 L 1249.5,372.0 L 1257.0,371.5 L 1264.0,370.5 L 1271.0,369.5 L 1278.5,369.0 L 1280.5,374.0 L 1279.5,381.0 L 1279.5,389.0 L 1278.5,396.0 L 1277.5,403.0 L 1277.5,411.0 L 1276.5,418.0 L 1276.0,425.5 L 1274.5,432.0 L 1273.5,439.0 L 1271.5,445.0 L 1270.0,451.5 L 1268.0,457.5 L 1265.5,463.0 L 1263.5,469.0 L 1261.5,475.0 L 1259.0,480.5 L 1256.5,486.0 L 1254.0,491.5 L 1251.5,497.0 L 1248.5,502.0 L 1245.5,507.0 L 1242.5,512.0 L 1239.5,517.0 L 1236.5,522.0 L 1233.0,526.5 L 1230.0,531.5 L 1226.5,536.0 L 1223.0,540.5 L 1219.5,545.0 L 1215.5,549.0 L 1212.0,553.5 L 1208.0,557.5 L 1204.0,561.5 L 1200.0,565.5 L 1196.0,569.5 L 1191.5,573.0 L 1187.5,577.0 L 1183.0,580.5 L 1178.5,584.0 L 1174.0,587.5 L 1169.0,590.5 L 1164.0,593.5 L 1159.0,596.5 L 1154.0,599.5 L 1149.0,602.5 L 1143.5,605.0 L 1138.0,607.5 L 1132.5,610.0 L 1127.0,612.5 L 1121.0,614.5 L 1115.0,616.5 L 1109.0,618.5 L 1103.5,621.0 L 1097.5,623.0 L 1091.0,624.5 L 1085.0,626.5 L 1079.0,628.5 L 1073.0,630.5 L 1066.0,631.5 L 1060.0,633.5 L 1053.5,635.0 L 1047.0,636.5 L 1040.5,638.0 L 1034.0,639.5 L 1027.0,640.5 L 1020.5,642.0 L 1014.0,643.5 L 1007.0,644.5 L 1000.0,645.5 L 993.0,646.5 L 986.0,647.5 L 978.0,647.5 L 971.0,648.5 L 964.0,649.5 L 956.0,649.5 L 949.0,650.5 L 941.0,650.5 L 933.0,650.5 L 925.0,650.5 L 917.0,650.5 L 909.0,650.5 L 902.0,649.5 L 895.0,648.5 L 887.5,648.0 L 880.5,647.0 L 874.0,645.5 L 867.0,644.5 L 861.0,642.5 L 854.5,641.0 L 848.5,639.0 L 843.0,636.5 L 837.0,634.5 L 832.0,631.5 L 827.0,628.5 L 822.5,625.0 L 818.0,621.5 L 814.0,617.5 L 809.5,614.0 L 805.0,610.5 L 800.5,607.0 L 796.5,603.0 L 792.0,599.5 L 787.5,596.0 L 783.0,592.5 L 779.5,595.0 L 776.5,600.0 L 773.5,605.0 L 770.5,610.0 L 767.0,614.5 L 763.5,619.0 L 760.0,623.5 L 756.5,628.0 L 752.5,632.0 L 748.0,635.5 L 744.0,639.5 L 739.5,643.0 L 735.0,646.5 L 730.0,649.5 L 725.0,652.5 L 720.0,655.5 L 714.5,658.0 L 709.0,660.5 L 703.0,662.5 L 697.0,664.5 L 691.0,666.5 L 685.0,668.5 L 678.0,669.5 L 671.0,670.5 L 664.0,671.5 Z" fill="#111111" stroke="none"/>
  <path d="M 588.5,420.0 L 586.0,415.5 L 580.5,414.0 L 575.5,412.0 L 571.0,409.5 L 566.0,407.5 L 562.0,404.5 L 557.0,402.5 L 553.0,399.5 L 548.5,397.0 L 544.5,394.0 L 540.0,391.5 L 536.0,388.5 L 532.0,385.5 L 528.0,382.5 L 524.0,379.5 L 520.5,376.0 L 516.5,373.0 L 512.5,370.0 L 509.0,366.5 L 505.5,363.0 L 502.0,359.5 L 498.5,356.0 L 495.5,352.0 L 492.0,348.5 L 489.0,344.5 L 486.0,340.5 L 483.5,336.0 L 480.5,332.0 L 478.0,327.5 L 475.5,323.0 L 473.0,318.5 L 470.5,314.0 L 468.5,309.0 L 466.5,304.0 L 464.5,299.0 L 463.0,293.5 L 461.5,288.0 L 460.0,282.5 L 458.5,277.0 L 457.5,271.0 L 457.0,264.5 L 456.5,258.0 L 456.5,251.0 L 457.5,245.0 L 458.5,239.0 L 459.5,233.0 L 461.5,228.0 L 463.5,223.0 L 465.5,218.0 L 468.5,214.0 L 471.5,210.0 L 475.0,206.5 L 479.0,203.5 L 483.0,200.5 L 487.5,198.0 L 492.0,195.5 L 497.0,193.5 L 503.0,192.5 L 508.0,190.5 L 514.0,189.5 L 521.0,189.5 L 528.0,189.5 L 535.0,189.5 L 542.0,189.5 L 548.0,190.5 L 554.0,191.5 L 560.0,192.5 L 566.0,193.5 L 572.0,194.5 L 578.0,195.5 L 583.0,197.5 L 588.5,199.0 L 593.5,201.0 L 598.5,203.0 L 603.0,205.5 L 608.0,207.5 L 612.5,210.0 L 616.5,213.0 L 621.0,215.5 L 625.0,218.5 L 628.5,222.0 L 632.5,225.0 L 636.5,228.0 L 640.0,231.5 L 644.0,234.5 L 648.5,236.0 L 648.5,240.0 L 645.5,244.0 L 641.5,247.0 L 635.0,247.5 L 629.0,246.5 L 624.0,244.5 L 619.0,242.5 L 613.5,241.0 L 609.5,241.0 L 611.5,246.0 L 614.5,250.0 L 618.5,253.0 L 622.5,256.0 L 626.5,259.0 L 625.0,260.5 L 622.0,261.5 L 625.0,265.5 L 629.0,268.5 L 633.0,271.5 L 637.0,274.5 L 641.0,277.5 L 645.0,280.5 L 649.5,283.0 L 653.5,286.0 L 658.0,288.5 L 662.0,291.5 L 666.5,294.0 L 671.0,296.5 L 676.0,298.5 L 680.5,301.0 L 685.0,303.5 L 690.0,305.5 L 694.0,308.5 L 699.0,310.5 L 703.5,313.0 L 708.0,315.5 L 712.0,318.5 L 716.5,321.0 L 720.5,324.0 L 724.5,327.0 L 728.0,330.5 L 731.5,334.0 L 734.5,338.0 L 737.5,342.0 L 741.0,345.5 L 745.0,348.5 L 750.0,350.5 L 756.0,351.5 L 763.0,351.5 L 769.0,350.5 L 775.0,349.5 L 781.0,348.5 L 783.5,344.0 L 779.0,341.5 L 773.0,340.5 L 766.0,340.5 L 760.0,339.5 L 755.0,337.5 L 750.5,335.0 L 746.5,332.0 L 743.0,328.5 L 739.0,325.5 L 735.5,322.0 L 732.0,318.5 L 728.5,315.0 L 725.5,311.0 L 722.0,307.5 L 718.0,304.5 L 714.5,301.0 L 711.0,297.5 L 711.0,293.5 L 714.5,297.0 L 720.0,296.5 L 724.5,294.0 L 730.0,292.5 L 735.5,291.0 L 742.0,290.5 L 748.5,291.0 L 754.5,292.0 L 760.0,293.5 L 765.5,295.0 L 770.5,297.0 L 775.5,299.0 L 780.5,301.0 L 785.0,303.5 L 790.0,305.5 L 795.0,307.5 L 800.0,309.5 L 804.0,312.5 L 808.0,315.5 L 812.0,318.5 L 815.0,322.5 L 818.0,326.5 L 820.5,331.0 L 822.5,336.0 L 824.0,341.5 L 830.0,342.5 L 833.0,338.5 L 836.0,334.5 L 838.5,330.0 L 841.5,326.0 L 843.5,321.0 L 844.5,315.0 L 844.5,310.0 L 842.0,305.5 L 838.5,302.0 L 835.0,298.5 L 831.5,295.0 L 829.0,290.5 L 826.5,286.0 L 824.5,281.0 L 822.5,276.0 L 820.5,271.0 L 818.5,266.0 L 815.5,262.0 L 811.0,259.5 L 806.0,257.5 L 801.0,255.5 L 796.5,253.0 L 792.0,250.5 L 787.5,248.0 L 783.0,245.5 L 779.0,242.5 L 775.0,239.5 L 771.0,236.5 L 767.0,233.5 L 763.0,230.5 L 759.5,227.0 L 756.0,223.5 L 752.5,220.0 L 749.0,216.5 L 746.0,212.5 L 743.0,208.5 L 739.5,205.0 L 736.5,201.0 L 734.0,196.5 L 731.0,192.5 L 728.5,188.0 L 725.5,184.0 L 723.0,179.5 L 720.5,175.0 L 718.0,170.5 L 715.5,166.0 L 713.5,161.0 L 711.5,156.0 L 709.5,151.0 L 707.5,146.0 L 705.5,141.0 L 703.5,136.0 L 702.0,130.5 L 700.5,125.0 L 698.5,120.0 L 697.0,114.5 L 695.5,109.0 L 693.0,106.5 L 689.5,110.0 L 688.0,115.5 L 686.5,121.0 L 686.5,128.0 L 686.5,135.0 L 686.5,142.0 L 687.5,148.0 L 688.0,154.5 L 687.5,159.0 L 684.5,155.0 L 681.0,151.5 L 678.0,147.5 L 675.0,143.5 L 672.0,139.5 L 668.5,136.0 L 665.5,132.0 L 662.0,128.5 L 658.0,125.5 L 654.0,122.5 L 650.5,119.0 L 646.5,116.0 L 643.0,112.5 L 639.0,109.5 L 635.0,106.5 L 631.5,103.0 L 627.5,100.0 L 623.5,97.0 L 619.5,94.0 L 615.0,91.5 L 611.0,88.5 L 606.5,86.0 L 602.0,83.5 L 598.0,80.5 L 593.0,78.5 L 589.0,75.5 L 584.0,73.5 L 580.0,70.5 L 575.0,68.5 L 570.5,66.0 L 566.0,63.5 L 561.0,61.5 L 556.0,59.5 L 551.0,57.5 L 545.5,56.0 L 541.0,56.5 L 545.0,59.5 L 549.0,62.5 L 553.5,65.0 L 558.0,67.5 L 562.0,70.5 L 566.5,73.0 L 570.5,76.0 L 574.0,79.5 L 578.5,82.0 L 582.5,85.0 L 586.0,88.5 L 590.0,91.5 L 593.5,95.0 L 597.0,98.5 L 600.5,102.0 L 604.0,105.5 L 607.5,109.0 L 610.5,113.0 L 614.0,116.5 L 617.0,120.5 L 620.0,124.5 L 622.5,129.0 L 625.5,133.0 L 625.0,137.5 L 621.0,134.5 L 616.5,132.0 L 612.0,129.5 L 607.0,127.5 L 602.5,125.0 L 598.0,122.5 L 593.0,120.5 L 588.0,118.5 L 583.5,116.0 L 579.0,113.5 L 574.0,111.5 L 568.5,110.0 L 563.0,108.5 L 558.0,106.5 L 553.0,104.5 L 547.0,103.5 L 542.0,101.5 L 536.0,100.5 L 530.5,99.0 L 525.0,97.5 L 519.0,96.5 L 513.0,95.5 L 507.0,94.5 L 500.5,94.0 L 494.0,93.5 L 488.0,92.5 L 481.0,92.5 L 474.0,92.5 L 467.0,92.5 L 463.5,94.0 L 467.0,97.5 L 473.0,98.5 L 478.5,100.0 L 484.0,101.5 L 489.5,103.0 L 495.0,104.5 L 500.0,106.5 L 505.5,108.0 L 511.0,109.5 L 516.0,111.5 L 521.0,113.5 L 526.0,115.5 L 531.0,117.5 L 536.0,119.5 L 541.0,121.5 L 545.5,124.0 L 550.5,126.0 L 555.0,128.5 L 560.0,130.5 L 564.5,133.0 L 569.0,135.5 L 574.0,137.5 L 578.0,140.5 L 582.5,143.0 L 587.0,145.5 L 591.0,148.5 L 595.5,151.0 L 599.5,154.0 L 603.5,157.0 L 607.5,160.0 L 611.5,163.0 L 615.0,166.5 L 618.5,170.0 L 622.0,173.5 L 625.5,177.0 L 628.5,181.0 L 632.0,184.5 L 635.0,188.5 L 637.5,193.0 L 640.0,197.5 L 642.5,202.0 L 645.5,206.0 L 649.0,209.5 L 654.0,211.5 L 659.0,213.5 L 664.0,215.5 L 668.5,218.0 L 673.0,220.5 L 677.0,223.5 L 681.5,226.0 L 685.0,229.5 L 688.0,233.5 L 690.5,238.0 L 692.0,243.5 L 693.5,249.0 L 694.5,255.0 L 695.5,261.0 L 697.5,266.0 L 699.0,271.5 L 701.5,276.0 L 703.5,281.0 L 706.0,285.5 L 708.5,290.0 L 705.0,289.5 L 701.5,286.0 L 698.5,282.0 L 695.5,278.0 L 693.5,273.0 L 691.0,268.5 L 689.5,263.0 L 684.0,261.5 L 678.5,263.0 L 673.5,265.0 L 668.0,266.5 L 662.5,268.0 L 656.0,268.5 L 650.0,267.5 L 643.5,267.0 L 637.5,266.0 L 633.0,263.5 L 633.0,261.5 L 639.0,262.5 L 644.5,264.0 L 651.0,264.5 L 656.5,265.0 L 663.0,264.5 L 669.0,263.5 L 674.5,262.0 L 680.0,260.5 L 685.0,258.5 L 689.5,256.0 L 690.0,250.5 L 688.5,245.0 L 686.5,240.0 L 683.5,236.0 L 680.0,232.5 L 676.5,229.0 L 672.5,226.0 L 668.0,223.5 L 664.0,220.5 L 659.0,218.5 L 653.0,217.5 L 650.5,220.0 L 650.5,227.0 L 650.5,230.0 L 647.5,229.0 L 646.5,223.0 L 644.5,218.0 L 642.5,213.0 L 640.5,208.0 L 637.5,204.0 L 635.0,199.5 L 632.0,195.5 L 628.5,192.0 L 625.5,188.0 L 622.0,184.5 L 618.5,181.0 L 614.5,178.0 L 611.0,174.5 L 607.0,171.5 L 603.0,168.5 L 598.5,166.0 L 594.0,163.5 L 590.0,160.5 L 585.0,158.5 L 580.5,156.0 L 575.5,154.0 L 570.5,152.0 L 565.5,150.0 L 560.0,148.5 L 555.0,146.5 L 549.0,145.5 L 544.0,143.5 L 538.0,142.5 L 532.0,141.5 L 526.0,140.5 L 520.5,139.0 L 514.0,138.5 L 508.0,137.5 L 502.0,136.5 L 496.0,135.5 L 489.0,135.5 L 482.5,135.0 L 476.0,134.5 L 469.0,134.5 L 462.0,134.5 L 455.0,134.5 L 448.0,134.5 L 441.0,134.5 L 434.0,134.5 L 427.0,134.5 L 421.0,135.5 L 414.0,135.5 L 408.0,136.5 L 401.5,137.0 L 396.0,138.5 L 390.5,140.0 L 396.0,141.5 L 402.0,142.5 L 408.0,143.5 L 414.0,144.5 L 419.5,146.0 L 425.0,147.5 L 430.0,149.5 L 434.0,152.5 L 438.0,155.5 L 441.0,159.5 L 442.0,164.5 L 437.0,166.5 L 432.0,168.5 L 428.0,171.5 L 424.0,174.5 L 420.0,177.5 L 416.5,181.0 L 412.5,184.0 L 409.0,187.5 L 405.5,191.0 L 402.0,194.5 L 398.5,198.0 L 395.0,201.5 L 392.0,205.5 L 388.5,209.0 L 385.5,213.0 L 382.5,217.0 L 379.5,221.0 L 376.5,225.0 L 374.0,229.5 L 371.5,234.0 L 369.0,238.5 L 366.5,243.0 L 364.5,248.0 L 362.5,253.0 L 361.0,258.5 L 359.5,264.0 L 357.5,269.0 L 356.5,275.0 L 355.5,281.0 L 354.5,287.0 L 353.5,293.0 L 352.5,299.0 L 352.5,306.0 L 351.5,312.0 L 352.5,318.0 L 356.0,319.5 L 358.5,315.0 L 360.5,310.0 L 363.0,305.5 L 365.5,301.0 L 367.5,296.0 L 370.0,291.5 L 372.5,287.0 L 375.5,283.0 L 378.5,279.0 L 381.5,275.0 L 384.5,271.0 L 387.5,267.0 L 391.0,263.5 L 395.0,260.5 L 399.5,258.0 L 404.0,255.5 L 406.5,260.0 L 405.5,266.0 L 404.5,272.0 L 404.5,279.0 L 403.5,285.0 L 404.5,291.0 L 404.5,298.0 L 405.5,304.0 L 406.5,310.0 L 407.5,316.0 L 408.5,322.0 L 409.5,328.0 L 411.5,333.0 L 413.5,338.0 L 415.5,343.0 L 417.5,348.0 L 419.5,353.0 L 422.0,357.5 L 424.5,362.0 L 427.5,366.0 L 430.0,370.5 L 433.0,374.5 L 436.5,378.0 L 440.0,381.5 L 444.5,383.0 L 444.5,376.0 L 444.5,369.0 L 443.5,363.0 L 443.5,356.0 L 442.5,350.0 L 442.5,343.0 L 443.5,337.0 L 444.5,331.0 L 447.0,328.5 L 450.5,332.0 L 453.5,336.0 L 456.5,340.0 L 459.5,344.0 L 463.0,347.5 L 466.5,351.0 L 470.0,354.5 L 473.5,358.0 L 477.0,361.5 L 480.5,365.0 L 484.0,368.5 L 488.0,371.5 L 492.0,374.5 L 495.5,378.0 L 499.5,381.0 L 503.0,384.5 L 507.0,387.5 L 511.0,390.5 L 515.5,393.0 L 520.0,395.5 L 524.0,398.5 L 528.5,401.0 L 533.0,403.5 L 538.0,405.5 L 542.5,408.0 L 547.5,410.0 L 552.0,412.5 L 557.5,414.0 L 563.0,415.5 L 568.0,417.5 L 574.0,418.5 L 580.0,419.5 L 586.0,420.5 Z" fill="#111111" stroke="none"/>
  <path d="M 968.5,602.0 L 973.0,601.5 L 978.0,601.5 L 982.5,601.0 L 987.0,600.5 L 992.0,600.5 L 997.0,600.5 L 1002.0,600.5 L 1006.0,599.5 L 1011.0,599.5 L 1015.0,598.5 L 1020.0,598.5 L 1024.0,597.5 L 1028.0,596.5 L 1032.5,596.0 L 1037.0,595.5 L 1041.0,594.5 L 1045.0,593.5 L 1049.0,592.5 L 1053.0,591.5 L 1057.0,590.5 L 1061.0,589.5 L 1065.0,588.5 L 1069.0,587.5 L 1073.0,586.5 L 1076.5,585.0 L 1080.0,583.5 L 1084.0,582.5 L 1087.5,581.0 L 1091.0,579.5 L 1095.0,578.5 L 1098.0,576.5 L 1102.0,575.5 L 1105.0,573.5 L 1108.5,572.0 L 1112.0,570.5 L 1115.0,568.5 L 1118.5,567.0 L 1122.0,565.5 L 1125.0,563.5 L 1128.0,561.5 L 1131.5,560.0 L 1134.5,558.0 L 1137.5,556.0 L 1140.5,554.0 L 1143.5,552.0 L 1146.0,549.5 L 1149.0,547.5 L 1152.0,545.5 L 1154.5,543.0 L 1157.5,541.0 L 1160.0,538.5 L 1163.0,536.5 L 1165.5,534.0 L 1168.0,531.5 L 1170.5,529.0 L 1173.0,526.5 L 1175.5,524.0 L 1177.5,521.0 L 1180.0,518.5 L 1182.5,516.0 L 1184.5,513.0 L 1187.0,510.5 L 1189.0,507.5 L 1191.0,504.5 L 1193.0,501.5 L 1195.0,498.5 L 1197.0,495.5 L 1199.0,492.5 L 1201.0,489.5 L 1202.5,486.0 L 1204.5,483.0 L 1206.5,480.0 L 1208.0,476.5 L 1210.0,473.5 L 1211.5,470.0 L 1213.0,466.5 L 1214.5,463.0 L 1216.0,459.5 L 1217.5,456.0 L 1219.0,452.5 L 1220.5,449.0 L 1221.5,445.0 L 1223.0,441.5 L 1224.5,438.0 L 1225.5,434.0 L 1226.5,430.0 L 1227.5,426.0 L 1228.5,422.0 L 1225.0,420.5 L 1221.5,422.0 L 1220.0,425.5 L 1217.5,428.0 L 1215.0,430.5 L 1212.0,432.5 L 1209.0,434.5 L 1206.5,437.0 L 1203.5,439.0 L 1201.0,441.5 L 1198.0,443.5 L 1195.5,446.0 L 1193.0,448.5 L 1190.0,450.5 L 1187.5,453.0 L 1184.5,455.0 L 1182.0,457.5 L 1179.0,459.5 L 1176.0,461.5 L 1173.0,463.5 L 1170.5,466.0 L 1167.5,468.0 L 1164.0,469.5 L 1161.0,471.5 L 1158.0,473.5 L 1155.0,475.5 L 1151.5,477.0 L 1148.0,478.5 L 1145.0,480.5 L 1142.0,482.5 L 1138.5,484.0 L 1135.0,485.5 L 1132.0,487.5 L 1128.5,489.0 L 1125.0,490.5 L 1122.0,492.5 L 1118.0,493.5 L 1114.5,495.0 L 1111.0,496.5 L 1107.0,497.5 L 1103.0,498.5 L 1099.0,499.5 L 1095.0,500.5 L 1091.0,501.5 L 1086.0,501.5 L 1082.0,502.5 L 1077.0,502.5 L 1073.0,503.5 L 1068.0,503.5 L 1063.0,503.5 L 1058.0,503.5 L 1053.0,503.5 L 1048.0,503.5 L 1043.0,503.5 L 1039.0,502.5 L 1035.0,501.5 L 1031.0,500.5 L 1027.0,499.5 L 1023.0,498.5 L 1019.5,497.0 L 1016.0,495.5 L 1012.0,494.5 L 1009.0,492.5 L 1005.5,491.0 L 1002.0,489.5 L 999.0,487.5 L 996.0,485.5 L 993.0,483.5 L 990.0,481.5 L 987.0,479.5 L 984.5,477.0 L 981.5,475.0 L 979.5,472.0 L 977.0,469.5 L 978.5,467.0 L 980.5,464.0 L 982.5,461.0 L 985.0,458.5 L 987.0,455.5 L 989.0,452.5 L 991.5,450.0 L 993.5,447.0 L 995.5,444.0 L 998.0,441.5 L 1000.0,438.5 L 1002.0,435.5 L 1004.5,433.0 L 1006.5,430.0 L 1008.5,427.0 L 1011.0,424.5 L 1013.0,421.5 L 1015.5,419.0 L 1017.5,416.0 L 1019.5,413.0 L 1022.0,410.5 L 1024.0,407.5 L 1026.0,404.5 L 1028.5,402.0 L 1030.5,399.0 L 1032.5,396.0 L 1035.0,393.5 L 1037.0,390.5 L 1039.5,388.0 L 1042.0,385.5 L 1044.0,382.5 L 1046.5,380.0 L 1049.0,377.5 L 1051.0,374.5 L 1053.5,372.0 L 1056.0,369.5 L 1058.5,367.0 L 1061.0,364.5 L 1063.5,362.0 L 1066.0,359.5 L 1068.5,357.0 L 1071.0,354.5 L 1074.0,352.5 L 1076.5,350.0 L 1079.0,347.5 L 1082.0,345.5 L 1085.0,343.5 L 1088.0,341.5 L 1091.0,339.5 L 1094.0,337.5 L 1097.0,335.5 L 1100.5,334.0 L 1104.0,332.5 L 1108.0,331.5 L 1113.0,331.5 L 1117.0,330.5 L 1122.0,330.5 L 1127.0,330.5 L 1132.0,330.5 L 1137.0,330.5 L 1141.0,331.5 L 1144.5,330.0 L 1142.0,327.5 L 1140.0,324.5 L 1137.0,322.5 L 1134.5,320.0 L 1131.5,318.0 L 1128.0,316.5 L 1125.0,314.5 L 1121.5,313.0 L 1118.0,311.5 L 1114.0,310.5 L 1110.5,309.0 L 1106.5,308.0 L 1102.0,307.5 L 1098.0,306.5 L 1094.0,305.5 L 1089.0,305.5 L 1084.0,305.5 L 1079.0,305.5 L 1074.0,305.5 L 1070.5,307.0 L 1067.5,309.0 L 1065.0,311.5 L 1063.0,314.5 L 1061.5,318.0 L 1060.0,321.5 L 1058.5,325.0 L 1056.5,328.0 L 1055.0,331.5 L 1053.5,335.0 L 1051.5,338.0 L 1050.0,341.5 L 1048.0,344.5 L 1045.5,347.0 L 1043.5,350.0 L 1041.5,353.0 L 1039.0,355.5 L 1036.5,358.0 L 1034.0,360.5 L 1031.5,363.0 L 1028.5,365.0 L 1026.0,367.5 L 1023.0,369.5 L 1020.0,371.5 L 1017.0,373.5 L 1014.0,375.5 L 1011.0,377.5 L 1008.0,379.5 L 1005.0,381.5 L 1002.0,383.5 L 999.0,385.5 L 995.5,387.0 L 992.0,388.5 L 989.0,390.5 L 985.5,392.0 L 982.0,393.5 L 979.0,395.5 L 975.5,397.0 L 972.0,398.5 L 968.0,399.5 L 965.0,401.5 L 961.5,403.0 L 958.0,404.5 L 954.5,403.0 L 954.0,398.5 L 953.5,394.0 L 953.5,389.0 L 953.5,384.0 L 953.5,379.0 L 952.5,375.0 L 952.5,370.0 L 952.5,365.0 L 952.5,360.0 L 952.5,355.0 L 952.5,350.0 L 953.5,346.0 L 953.5,341.0 L 954.5,337.0 L 955.0,332.5 L 955.5,328.0 L 956.5,324.0 L 957.5,320.0 L 958.5,316.0 L 959.5,312.0 L 960.5,308.0 L 961.5,304.0 L 962.5,300.0 L 963.5,296.0 L 965.0,292.5 L 966.5,289.0 L 967.5,285.0 L 969.0,281.5 L 970.5,278.0 L 972.0,274.5 L 973.5,271.0 L 975.0,267.5 L 976.5,264.0 L 978.0,260.5 L 979.5,257.0 L 981.5,254.0 L 983.0,250.5 L 984.5,247.0 L 986.5,244.0 L 988.0,240.5 L 990.0,237.5 L 991.5,234.0 L 993.5,231.0 L 995.5,228.0 L 997.5,225.0 L 999.5,222.0 L 1001.5,219.0 L 1003.5,216.0 L 1005.5,213.0 L 1007.5,210.0 L 1009.5,207.0 L 1011.5,204.0 L 1013.5,201.0 L 1016.0,198.5 L 1018.0,195.5 L 1020.5,193.0 L 1022.5,190.0 L 1024.5,187.0 L 1027.5,185.0 L 1030.0,182.5 L 1032.5,180.0 L 1035.0,177.5 L 1037.5,175.0 L 1040.0,172.5 L 1043.0,170.5 L 1045.5,168.0 L 1048.0,165.5 L 1050.5,163.0 L 1053.0,160.5 L 1055.5,158.0 L 1058.0,155.5 L 1061.0,153.5 L 1063.5,151.0 L 1066.0,148.5 L 1068.5,146.0 L 1071.0,143.5 L 1073.5,141.0 L 1076.0,138.5 L 1079.0,136.5 L 1081.5,134.0 L 1084.0,131.5 L 1087.0,129.5 L 1090.0,127.5 L 1092.5,125.0 L 1095.5,123.0 L 1098.0,120.5 L 1101.0,118.5 L 1103.0,115.5 L 1103.0,113.5 L 1098.5,114.0 L 1094.0,114.5 L 1090.0,115.5 L 1086.5,117.0 L 1083.0,118.5 L 1079.0,119.5 L 1076.0,121.5 L 1072.0,122.5 L 1069.0,124.5 L 1065.5,126.0 L 1062.0,127.5 L 1059.0,129.5 L 1055.5,131.0 L 1052.0,132.5 L 1049.0,134.5 L 1046.0,136.5 L 1043.0,138.5 L 1039.5,140.0 L 1036.5,142.0 L 1033.5,144.0 L 1030.5,146.0 L 1027.5,148.0 L 1024.5,150.0 L 1021.5,152.0 L 1018.5,154.0 L 1015.5,156.0 L 1012.5,158.0 L 1010.0,160.5 L 1007.0,162.5 L 1004.0,164.5 L 1001.5,167.0 L 998.5,169.0 L 996.0,171.5 L 993.5,174.0 L 991.0,176.5 L 988.5,179.0 L 986.0,181.5 L 983.5,184.0 L 981.0,186.5 L 978.5,189.0 L 976.0,191.5 L 973.5,194.0 L 971.0,196.5 L 968.5,199.0 L 966.5,202.0 L 964.0,204.5 L 961.5,207.0 L 959.5,210.0 L 957.0,212.5 L 955.0,215.5 L 953.0,218.5 L 951.0,221.5 L 949.0,224.5 L 947.0,227.5 L 945.0,230.5 L 943.0,233.5 L 941.0,236.5 L 939.0,239.5 L 936.5,242.0 L 935.0,245.5 L 933.0,248.5 L 930.5,251.0 L 928.5,254.0 L 927.0,257.5 L 925.5,261.0 L 923.0,263.5 L 920.5,266.0 L 917.5,265.0 L 915.0,262.5 L 913.0,259.5 L 911.0,256.5 L 909.5,253.0 L 908.5,249.0 L 907.5,245.0 L 907.5,240.0 L 906.5,236.0 L 906.5,231.0 L 906.5,226.0 L 906.5,221.0 L 907.5,217.0 L 907.5,212.0 L 908.0,207.5 L 908.5,203.0 L 908.5,198.0 L 909.5,194.0 L 909.5,189.0 L 908.5,186.0 L 905.5,188.0 L 902.5,190.0 L 900.0,192.5 L 897.5,195.0 L 895.5,198.0 L 893.0,200.5 L 891.0,203.5 L 889.5,207.0 L 887.5,210.0 L 885.5,213.0 L 884.0,216.5 L 882.5,220.0 L 881.0,223.5 L 879.5,227.0 L 878.5,231.0 L 877.0,234.5 L 875.5,238.0 L 874.5,242.0 L 873.5,246.0 L 872.5,250.0 L 871.5,254.0 L 870.5,258.0 L 869.5,262.0 L 868.5,266.0 L 868.5,271.0 L 867.5,275.0 L 867.5,280.0 L 866.5,284.0 L 866.5,289.0 L 866.5,294.0 L 866.5,299.0 L 866.5,304.0 L 866.5,309.0 L 866.5,314.0 L 866.5,319.0 L 866.5,324.0 L 866.5,329.0 L 866.5,334.0 L 867.0,338.5 L 867.5,343.0 L 867.5,348.0 L 868.0,352.5 L 868.5,357.0 L 869.5,361.0 L 869.5,366.0 L 870.5,370.0 L 871.5,374.0 L 871.5,379.0 L 872.5,383.0 L 871.0,386.5 L 869.0,389.5 L 866.5,392.0 L 864.0,392.5 L 859.0,392.5 L 855.5,391.0 L 852.0,389.5 L 849.0,387.5 L 846.0,385.5 L 843.5,383.0 L 841.0,380.5 L 838.5,378.0 L 836.5,375.0 L 834.5,372.0 L 832.5,369.0 L 830.5,366.0 L 828.5,363.0 L 826.5,360.0 L 825.0,356.5 L 823.5,353.0 L 821.5,350.0 L 820.5,346.0 L 818.5,343.0 L 817.5,339.0 L 815.5,336.0 L 814.0,332.5 L 812.0,329.5 L 810.0,326.5 L 808.0,323.5 L 805.5,321.0 L 803.0,318.5 L 799.5,317.0 L 796.0,315.5 L 791.0,315.5 L 787.0,314.5 L 782.0,314.5 L 777.0,314.5 L 773.0,313.5 L 769.0,312.5 L 765.0,311.5 L 761.0,310.5 L 757.0,309.5 L 754.0,307.5 L 750.0,306.5 L 747.0,304.5 L 743.0,303.5 L 739.5,302.0 L 736.0,300.5 L 734.0,302.5 L 735.5,306.0 L 737.5,309.0 L 739.5,312.0 L 742.0,314.5 L 745.0,316.5 L 747.5,319.0 L 750.5,321.0 L 753.5,323.0 L 756.5,325.0 L 760.0,326.5 L 763.5,328.0 L 767.0,329.5 L 771.0,330.5 L 775.5,331.0 L 779.0,332.5 L 782.0,334.5 L 784.5,337.0 L 786.5,340.0 L 788.0,343.5 L 789.5,347.0 L 791.0,350.5 L 792.5,354.0 L 794.0,357.5 L 795.5,361.0 L 796.5,365.0 L 798.0,368.5 L 799.5,372.0 L 800.5,376.0 L 801.5,380.0 L 802.5,384.0 L 804.0,387.5 L 805.5,391.0 L 806.5,395.0 L 807.5,399.0 L 808.5,403.0 L 809.5,407.0 L 810.5,411.0 L 811.5,415.0 L 812.5,419.0 L 814.0,422.5 L 815.5,426.0 L 816.5,430.0 L 818.0,433.5 L 819.5,437.0 L 820.5,441.0 L 822.5,444.0 L 823.5,448.0 L 825.5,451.0 L 827.0,454.5 L 828.5,458.0 L 830.5,461.0 L 832.5,464.0 L 834.5,467.0 L 836.0,470.5 L 838.0,473.5 L 840.5,476.0 L 842.5,479.0 L 844.5,482.0 L 847.0,484.5 L 849.0,487.5 L 851.5,490.0 L 854.0,492.5 L 856.5,495.0 L 859.0,497.5 L 861.0,500.5 L 863.5,503.0 L 866.0,505.5 L 868.5,508.0 L 871.0,510.5 L 873.5,513.0 L 876.5,515.0 L 879.0,517.5 L 882.0,519.5 L 885.0,521.5 L 888.0,523.5 L 891.0,525.5 L 894.0,527.5 L 897.0,529.5 L 900.0,531.5 L 903.0,533.5 L 906.0,535.5 L 909.0,537.5 L 912.0,539.5 L 915.0,541.5 L 918.0,543.5 L 921.0,545.5 L 924.0,547.5 L 927.0,549.5 L 930.5,551.0 L 933.5,553.0 L 936.5,555.0 L 937.5,559.0 L 935.5,562.0 L 934.0,565.5 L 931.5,568.0 L 929.0,570.5 L 926.5,573.0 L 923.0,574.5 L 920.0,576.5 L 916.5,578.0 L 913.0,579.5 L 909.0,580.5 L 905.5,582.0 L 901.5,583.0 L 897.5,584.0 L 893.5,585.0 L 889.0,585.5 L 885.0,586.5 L 881.0,587.5 L 876.0,587.5 L 871.0,587.5 L 866.0,587.5 L 862.0,588.5 L 857.0,588.5 L 853.5,590.0 L 856.0,592.5 L 860.0,593.5 L 865.0,593.5 L 869.0,594.5 L 873.5,595.0 L 878.0,595.5 L 882.0,596.5 L 887.0,596.5 L 891.0,597.5 L 896.0,597.5 L 901.0,597.5 L 905.0,598.5 L 910.0,598.5 L 914.5,599.0 L 919.0,599.5 L 924.0,599.5 L 928.0,600.5 L 933.0,600.5 L 937.5,601.0 L 942.0,601.5 L 946.0,602.5 L 951.0,602.5 L 956.0,602.5 L 961.0,602.5 L 966.0,602.5 Z" fill="#111111" stroke="none"/>
  <path d="M 652.5,627.0 L 659.0,626.5 L 665.0,625.5 L 671.0,624.5 L 676.5,623.0 L 682.0,621.5 L 687.0,619.5 L 692.0,617.5 L 696.5,615.0 L 701.0,612.5 L 705.0,609.5 L 709.5,607.0 L 713.0,603.5 L 717.0,600.5 L 720.5,597.0 L 723.5,593.0 L 727.0,589.5 L 730.0,585.5 L 732.5,581.0 L 735.5,577.0 L 738.0,572.5 L 740.5,568.0 L 742.5,563.0 L 744.5,558.0 L 746.5,553.0 L 747.5,547.0 L 748.5,541.0 L 749.5,535.0 L 749.5,528.0 L 749.5,521.0 L 748.5,515.0 L 748.0,508.5 L 746.5,503.0 L 745.5,497.0 L 743.5,492.0 L 741.5,487.0 L 739.5,482.0 L 737.5,477.0 L 735.0,472.5 L 732.5,468.0 L 730.0,463.5 L 727.0,459.5 L 724.5,455.0 L 721.5,451.0 L 718.0,447.5 L 715.0,443.5 L 711.5,440.0 L 708.0,436.5 L 704.5,433.0 L 701.0,429.5 L 697.5,426.0 L 694.0,422.5 L 690.5,419.0 L 687.0,415.5 L 683.0,412.5 L 679.0,409.5 L 675.0,406.5 L 671.5,403.0 L 667.5,400.0 L 663.0,397.5 L 659.0,394.5 L 655.0,391.5 L 650.5,389.0 L 646.0,386.5 L 642.0,383.5 L 637.5,381.0 L 633.0,378.5 L 628.0,376.5 L 623.5,374.0 L 619.0,371.5 L 614.0,369.5 L 609.0,367.5 L 604.0,365.5 L 599.0,363.5 L 594.0,361.5 L 589.0,359.5 L 584.0,357.5 L 579.0,355.5 L 573.5,354.0 L 568.0,352.5 L 563.0,350.5 L 557.0,349.5 L 552.0,347.5 L 546.0,346.5 L 542.5,350.0 L 547.0,352.5 L 552.0,354.5 L 556.5,357.0 L 561.0,359.5 L 565.0,362.5 L 569.0,365.5 L 573.0,368.5 L 577.0,371.5 L 581.0,374.5 L 585.0,377.5 L 589.0,380.5 L 592.5,384.0 L 596.0,387.5 L 600.0,390.5 L 603.5,394.0 L 606.5,398.0 L 610.0,401.5 L 613.5,405.0 L 616.5,409.0 L 619.5,413.0 L 622.5,417.0 L 625.5,421.0 L 628.0,425.5 L 630.5,430.0 L 633.0,434.5 L 635.0,439.5 L 637.0,444.5 L 638.5,450.0 L 640.5,455.0 L 641.5,461.0 L 642.5,467.0 L 642.5,474.0 L 642.5,481.0 L 642.0,487.5 L 641.5,494.0 L 640.0,499.5 L 638.5,505.0 L 636.5,510.0 L 635.0,515.5 L 633.0,520.5 L 631.0,525.5 L 628.5,530.0 L 630.0,533.5 L 636.0,532.5 L 642.0,531.5 L 647.0,529.5 L 651.5,527.0 L 656.0,524.5 L 660.0,521.5 L 664.0,518.5 L 668.0,515.5 L 672.5,513.0 L 674.5,515.0 L 673.5,521.0 L 673.5,528.0 L 672.0,533.5 L 670.5,539.0 L 668.5,544.0 L 666.5,549.0 L 664.0,553.5 L 660.5,557.0 L 657.0,560.5 L 653.0,563.5 L 648.5,566.0 L 643.5,568.0 L 638.0,569.5 L 631.0,569.5 L 624.0,569.5 L 618.0,568.5 L 612.0,567.5 L 606.5,566.0 L 601.0,564.5 L 596.0,562.5 L 591.0,560.5 L 586.5,558.0 L 582.0,555.5 L 577.5,553.0 L 573.0,550.5 L 569.0,547.5 L 565.0,544.5 L 561.0,541.5 L 557.5,538.0 L 554.0,534.5 L 551.0,530.5 L 548.0,526.5 L 545.5,522.0 L 542.0,518.5 L 539.0,520.5 L 538.5,527.0 L 539.0,533.5 L 540.5,539.0 L 542.0,544.5 L 544.0,549.5 L 546.5,554.0 L 548.5,559.0 L 551.5,563.0 L 554.0,567.5 L 557.0,571.5 L 560.0,575.5 L 563.0,579.5 L 563.0,583.5 L 557.0,582.5 L 551.0,581.5 L 545.0,580.5 L 540.0,578.5 L 534.0,577.5 L 529.0,575.5 L 524.0,573.5 L 518.5,572.0 L 513.5,570.0 L 508.5,568.0 L 503.5,566.0 L 498.5,564.0 L 494.0,561.5 L 489.0,559.5 L 484.0,557.5 L 479.5,555.0 L 475.0,552.5 L 470.0,550.5 L 466.0,547.5 L 461.0,545.5 L 456.5,543.0 L 452.0,540.5 L 448.0,537.5 L 444.0,534.5 L 439.5,532.0 L 436.0,528.5 L 432.5,525.0 L 432.0,521.5 L 437.0,519.5 L 441.5,517.0 L 446.0,514.5 L 450.5,512.0 L 455.5,510.0 L 460.0,507.5 L 465.0,505.5 L 470.0,503.5 L 475.0,501.5 L 481.0,500.5 L 486.0,498.5 L 492.0,497.5 L 497.0,495.5 L 503.0,494.5 L 509.0,493.5 L 515.0,492.5 L 521.0,491.5 L 528.0,491.5 L 534.0,490.5 L 541.0,490.5 L 548.0,490.5 L 555.0,490.5 L 562.0,490.5 L 569.0,490.5 L 576.0,490.5 L 583.0,490.5 L 582.5,487.0 L 579.0,483.5 L 575.5,480.0 L 570.5,478.0 L 565.0,476.5 L 560.0,474.5 L 554.0,473.5 L 548.5,472.0 L 542.0,471.5 L 536.0,470.5 L 529.0,470.5 L 522.0,470.5 L 515.0,470.5 L 509.0,471.5 L 503.0,472.5 L 497.0,473.5 L 491.0,474.5 L 485.5,476.0 L 480.0,477.5 L 475.0,479.5 L 469.5,481.0 L 464.5,483.0 L 459.5,485.0 L 455.0,487.5 L 450.0,489.5 L 445.0,491.5 L 440.5,494.0 L 436.0,496.5 L 431.0,498.5 L 426.0,500.5 L 421.5,503.0 L 417.0,505.5 L 411.0,506.5 L 406.0,506.5 L 401.0,504.5 L 396.0,502.5 L 392.0,499.5 L 387.5,497.0 L 383.0,494.5 L 378.5,492.0 L 374.0,489.5 L 369.0,487.5 L 364.0,485.5 L 359.5,483.0 L 354.5,481.0 L 349.5,479.0 L 344.0,477.5 L 339.0,475.5 L 333.5,474.0 L 328.0,472.5 L 322.0,471.5 L 316.0,470.5 L 310.0,469.5 L 303.0,469.5 L 296.5,469.0 L 290.0,468.5 L 284.0,469.5 L 277.0,469.5 L 271.0,470.5 L 265.0,471.5 L 259.0,472.5 L 253.0,473.5 L 248.0,475.5 L 242.5,477.0 L 237.0,478.5 L 232.0,480.5 L 227.0,482.5 L 222.0,484.5 L 217.5,487.0 L 213.5,490.0 L 209.5,493.0 L 209.0,496.5 L 215.0,495.5 L 221.0,494.5 L 227.0,493.5 L 232.5,492.0 L 238.0,490.5 L 244.0,489.5 L 250.0,488.5 L 256.0,487.5 L 262.0,486.5 L 268.0,485.5 L 274.0,484.5 L 281.0,484.5 L 288.0,484.5 L 295.0,484.5 L 302.0,484.5 L 308.0,485.5 L 314.0,486.5 L 320.0,487.5 L 325.0,489.5 L 331.0,490.5 L 336.0,492.5 L 341.0,494.5 L 346.0,496.5 L 350.5,499.0 L 355.0,501.5 L 360.0,503.5 L 364.0,506.5 L 368.5,509.0 L 373.0,511.5 L 377.0,514.5 L 380.5,518.0 L 383.0,521.5 L 378.0,523.5 L 372.5,525.0 L 368.0,527.5 L 363.0,529.5 L 358.5,532.0 L 354.0,534.5 L 349.0,536.5 L 344.0,538.5 L 339.0,540.5 L 333.0,541.5 L 327.0,542.5 L 321.5,544.0 L 316.0,545.5 L 310.0,546.5 L 304.0,547.5 L 298.0,548.5 L 291.0,548.5 L 285.0,549.5 L 278.0,549.5 L 271.0,549.5 L 264.0,549.5 L 257.0,549.5 L 251.0,548.5 L 245.0,547.5 L 239.0,546.5 L 233.0,545.5 L 227.5,544.0 L 222.0,542.5 L 216.5,541.0 L 211.0,539.5 L 206.5,537.0 L 201.5,535.0 L 197.0,532.5 L 192.0,530.5 L 187.0,528.5 L 182.0,526.5 L 177.0,524.5 L 172.5,522.0 L 168.0,519.5 L 164.0,516.5 L 160.0,513.5 L 156.5,510.0 L 153.0,506.5 L 149.5,503.0 L 146.0,499.5 L 143.0,495.5 L 140.0,491.5 L 137.0,487.5 L 134.5,483.0 L 132.0,478.5 L 130.0,473.5 L 128.0,468.5 L 126.5,463.0 L 124.5,458.0 L 123.5,452.0 L 122.5,446.0 L 121.5,440.0 L 120.5,434.0 L 119.5,428.0 L 119.5,421.0 L 118.5,415.0 L 118.5,408.0 L 118.5,401.0 L 118.5,394.0 L 118.5,387.0 L 118.5,380.0 L 118.5,373.0 L 119.5,367.0 L 120.5,361.0 L 122.0,355.5 L 123.5,350.0 L 125.5,345.0 L 127.0,339.5 L 128.5,334.0 L 130.5,329.0 L 132.5,324.0 L 134.5,319.0 L 136.5,314.0 L 138.5,309.0 L 141.0,304.5 L 143.5,300.0 L 146.0,295.5 L 148.5,291.0 L 151.0,286.5 L 153.5,282.0 L 156.5,278.0 L 159.5,274.0 L 162.5,270.0 L 165.5,266.0 L 168.5,262.0 L 171.5,258.0 L 174.5,254.0 L 178.0,250.5 L 181.5,247.0 L 185.0,243.5 L 188.5,240.0 L 192.0,236.5 L 196.0,233.5 L 199.5,230.0 L 203.5,227.0 L 207.0,223.5 L 211.0,220.5 L 215.5,218.0 L 219.5,215.0 L 223.5,212.0 L 227.5,209.0 L 231.5,206.0 L 235.5,203.0 L 240.0,200.5 L 244.0,197.5 L 248.0,194.5 L 252.0,191.5 L 256.0,188.5 L 260.5,186.0 L 264.5,183.0 L 268.5,180.0 L 273.0,177.5 L 277.0,174.5 L 281.0,171.5 L 285.0,168.5 L 289.5,166.0 L 294.0,163.5 L 297.0,159.5 L 296.0,156.5 L 290.0,157.5 L 285.0,159.5 L 279.0,160.5 L 274.0,162.5 L 268.0,163.5 L 263.0,165.5 L 258.0,167.5 L 252.5,169.0 L 247.5,171.0 L 242.5,173.0 L 237.5,175.0 L 232.5,177.0 L 227.5,179.0 L 223.0,181.5 L 218.0,183.5 L 213.0,185.5 L 209.0,188.5 L 204.0,190.5 L 200.0,193.5 L 195.5,196.0 L 191.0,198.5 L 187.0,201.5 L 182.5,204.0 L 178.0,206.5 L 174.0,209.5 L 170.0,212.5 L 166.0,215.5 L 162.0,218.5 L 158.0,221.5 L 154.0,224.5 L 150.0,227.5 L 146.0,230.5 L 142.5,234.0 L 138.5,237.0 L 135.0,240.5 L 131.0,243.5 L 128.0,247.5 L 124.5,251.0 L 121.5,255.0 L 118.0,258.5 L 115.0,262.5 L 111.5,266.0 L 108.5,270.0 L 105.5,274.0 L 102.5,278.0 L 99.5,282.0 L 96.5,286.0 L 94.0,290.5 L 91.5,295.0 L 88.5,299.0 L 86.5,304.0 L 83.5,308.0 L 81.5,313.0 L 79.0,317.5 L 76.5,322.0 L 74.5,327.0 L 72.5,332.0 L 70.5,337.0 L 68.5,342.0 L 66.5,347.0 L 65.0,352.5 L 63.5,358.0 L 61.5,363.0 L 60.0,368.5 L 58.5,374.0 L 57.5,380.0 L 56.0,385.5 L 54.5,391.0 L 53.5,397.0 L 52.5,403.0 L 51.5,409.0 L 51.0,415.5 L 50.5,422.0 L 49.5,428.0 L 49.5,435.0 L 48.5,441.0 L 49.5,447.0 L 49.5,454.0 L 49.5,461.0 L 50.5,467.0 L 51.5,473.0 L 52.5,479.0 L 53.5,485.0 L 54.5,491.0 L 55.5,497.0 L 57.5,502.0 L 59.0,507.5 L 60.5,513.0 L 62.5,518.0 L 64.5,523.0 L 67.0,527.5 L 69.5,532.0 L 71.5,537.0 L 74.5,541.0 L 77.0,545.5 L 80.0,549.5 L 83.0,553.5 L 86.0,557.5 L 89.5,561.0 L 92.5,565.0 L 96.0,568.5 L 100.0,571.5 L 104.0,574.5 L 108.0,577.5 L 112.0,580.5 L 116.0,583.5 L 120.0,586.5 L 124.0,589.5 L 128.5,592.0 L 133.0,594.5 L 137.5,597.0 L 143.0,598.5 L 148.0,600.5 L 153.0,602.5 L 158.0,604.5 L 163.0,606.5 L 169.0,607.5 L 176.0,607.5 L 182.0,608.5 L 188.0,609.5 L 195.0,609.5 L 201.0,610.5 L 208.0,610.5 L 214.0,611.5 L 221.0,611.5 L 228.0,611.5 L 235.0,611.5 L 241.0,610.5 L 248.0,610.5 L 254.0,609.5 L 260.0,608.5 L 266.0,607.5 L 271.5,606.0 L 277.0,604.5 L 282.5,603.0 L 288.0,601.5 L 293.0,599.5 L 298.0,597.5 L 302.5,595.0 L 307.0,592.5 L 312.0,590.5 L 316.5,588.0 L 321.0,585.5 L 325.0,582.5 L 329.5,580.0 L 334.0,577.5 L 338.5,575.0 L 343.0,572.5 L 347.0,569.5 L 351.5,567.0 L 356.0,564.5 L 360.5,562.0 L 365.0,559.5 L 369.0,556.5 L 373.5,554.0 L 378.0,551.5 L 382.0,548.5 L 386.5,546.0 L 390.5,543.0 L 395.0,540.5 L 400.0,538.5 L 405.0,536.5 L 411.0,537.5 L 415.5,540.0 L 420.0,542.5 L 424.0,545.5 L 429.0,547.5 L 433.0,550.5 L 437.5,553.0 L 442.0,555.5 L 446.5,558.0 L 451.0,560.5 L 455.5,563.0 L 460.0,565.5 L 464.0,568.5 L 469.0,570.5 L 474.0,572.5 L 478.5,575.0 L 483.5,577.0 L 488.0,579.5 L 493.0,581.5 L 498.0,583.5 L 502.5,586.0 L 507.0,588.5 L 512.0,590.5 L 517.0,592.5 L 521.5,595.0 L 526.5,597.0 L 531.0,599.5 L 536.0,601.5 L 541.0,603.5 L 545.5,606.0 L 551.0,607.5 L 556.0,609.5 L 561.0,611.5 L 566.0,613.5 L 571.5,615.0 L 577.0,616.5 L 582.0,618.5 L 588.0,619.5 L 593.0,621.5 L 599.0,622.5 L 605.0,623.5 L 611.0,624.5 L 617.0,625.5 L 623.0,626.5 L 630.0,626.5 L 636.0,627.5 L 643.0,627.5 L 650.0,627.5 Z" fill="#111111" stroke="none"/>
  <path d="M 509.5,357.0 L 509.5,356.0 L 509.0,355.5 L 508.5,355.0 L 508.5,354.0 L 508.0,353.5 L 507.5,353.0 L 507.5,352.0 L 507.0,351.5 L 506.5,351.0 L 506.5,350.0 L 506.0,349.5 L 505.5,349.0 L 505.5,348.0 L 505.0,347.5 L 504.5,347.0 L 504.5,346.0 L 504.0,345.5 L 503.5,345.0 L 503.5,344.0 L 503.0,343.5 L 502.5,343.0 L 502.5,342.0 L 502.0,341.5 L 501.5,341.0 L 501.5,340.0 L 501.0,339.5 L 500.5,339.0 L 500.5,338.0 L 500.5,337.0 L 500.0,336.5 L 499.5,336.0 L 499.5,335.0 L 499.0,334.5 L 498.5,334.0 L 498.5,333.0 L 498.0,332.5 L 497.5,332.0 L 497.5,331.0 L 497.5,330.0 L 497.0,329.5 L 496.5,329.0 L 496.5,328.0 L 496.0,327.5 L 495.5,327.0 L 495.5,326.0 L 495.5,325.0 L 495.0,324.5 L 494.5,324.0 L 494.5,323.0 L 494.0,322.5 L 493.5,322.0 L 493.5,321.0 L 493.5,320.0 L 493.0,319.5 L 492.5,319.0 L 492.5,318.0 L 492.5,317.0 L 492.0,316.5 L 491.5,316.0 L 491.5,315.0 L 491.5,314.0 L 491.5,313.0 L 491.0,312.5 L 490.5,312.0 L 490.5,311.0 L 490.5,310.0 L 490.0,309.5 L 489.5,309.0 L 489.5,308.0 L 489.5,307.0 L 489.5,306.0 L 489.0,305.5 L 488.5,305.0 L 488.5,304.0 L 488.5,303.0 L 488.5,302.0 L 488.0,301.5 L 487.5,301.0 L 487.5,300.0 L 487.5,299.0 L 487.5,298.0 L 487.5,297.0 L 487.0,296.5 L 486.5,296.0 L 486.5,295.0 L 486.5,294.0 L 486.5,293.0 L 486.5,292.0 L 486.5,291.0 L 486.5,290.0 L 486.0,289.5 L 485.5,289.0 L 485.5,288.0 L 485.5,287.0 L 485.5,286.0 L 485.5,285.0 L 485.5,284.0 L 485.5,283.0 L 485.5,282.0 L 485.5,281.0 L 485.5,280.0 L 485.5,279.0 L 485.5,278.0 L 485.5,277.0 L 485.5,276.0 L 485.5,275.0 L 485.5,274.0 L 485.5,273.0 L 485.5,272.0 L 485.5,271.0 L 485.5,270.0 L 485.5,269.0 L 486.0,268.5 L 486.5,268.0 L 486.5,267.0 L 486.5,266.0 L 486.5,265.0 L 486.5,264.0 L 486.5,263.0 L 487.0,262.5 L 487.5,262.0 L 487.5,261.0 L 487.5,260.0 L 487.5,259.0 L 488.0,258.5 L 488.5,258.0 L 488.5,257.0 L 488.5,256.0 L 488.5,255.0 L 489.0,254.5 L 489.5,254.0 L 489.5,253.0 L 489.5,252.0 L 490.0,251.5 L 490.5,251.0 L 490.5,250.0 L 491.0,249.5 L 491.5,249.0 L 491.5,248.0 L 492.0,247.5 L 492.5,247.0 L 492.5,246.0 L 493.0,245.5 L 493.5,245.0 L 493.5,244.0 L 494.0,243.5 L 494.5,243.0 L 494.5,242.0 L 495.0,241.5 L 495.5,241.0 L 496.0,240.5 L 496.5,240.0 L 496.5,239.0 L 497.0,238.5 L 497.5,238.0 L 498.0,237.5 L 498.5,237.0 L 498.5,236.0 L 499.0,235.5 L 499.5,235.0 L 500.0,234.5 L 500.5,234.0 L 501.0,233.5 L 501.5,233.0 L 502.0,232.5 L 502.5,232.0 L 503.0,231.5 L 503.5,231.0 L 504.0,230.5 L 504.5,230.0 L 505.0,229.5 L 505.5,229.0 L 506.0,228.5 L 506.5,228.0 L 507.0,227.5 L 507.5,227.0 L 508.0,226.5 L 508.5,226.0 L 509.0,225.5 L 509.5,225.0 L 510.0,224.5 L 510.5,224.0 L 511.0,223.5 L 512.0,223.5 L 512.5,223.0 L 513.0,222.5 L 513.5,222.0 L 514.0,221.5 L 515.0,221.5 L 515.5,221.0 L 516.0,220.5 L 517.0,220.5 L 517.5,220.0 L 518.0,219.5 L 519.0,219.5 L 519.5,219.0 L 520.0,218.5 L 521.0,218.5 L 521.5,218.0 L 522.0,217.5 L 523.0,217.5 L 523.5,217.0 L 524.0,216.5 L 525.0,216.5 L 526.0,216.5 L 526.5,216.0 L 527.0,215.5 L 528.0,215.5 L 529.0,215.5 L 529.5,215.0 L 530.0,214.5 L 531.0,214.5 L 532.0,214.5 L 533.0,214.5 L 533.5,214.0 L 534.0,213.5 L 535.0,213.5 L 536.0,213.5 L 537.0,213.5 L 538.0,213.5 L 538.5,213.0 L 539.0,212.5 L 540.0,212.5 L 541.0,212.5 L 542.0,212.5 L 543.0,212.5 L 544.0,212.5 L 545.0,212.5 L 546.0,212.5 L 547.0,212.5 L 548.0,212.5 L 548.5,212.0 L 549.0,211.5 L 550.0,211.5 L 551.0,211.5 L 552.0,211.5 L 553.0,211.5 L 554.0,211.5 L 554.5,212.0 L 555.0,212.5 L 556.0,212.5 L 557.0,212.5 L 558.0,212.5 L 559.0,212.5 L 560.0,212.5 L 561.0,212.5 L 562.0,212.5 L 563.0,212.5 L 564.0,212.5 L 565.0,212.5 L 565.5,213.0 L 566.0,213.5 L 567.0,213.5 L 568.0,213.5 L 569.0,213.5 L 570.0,213.5 L 571.0,213.5 L 571.5,214.0 L 572.0,214.5 L 573.0,214.5 L 574.0,214.5 L 575.0,214.5 L 575.5,215.0 L 576.0,215.5 L 577.0,215.5 L 578.0,215.5 L 579.0,215.5 L 579.5,216.0 L 580.0,216.5 L 581.0,216.5 L 582.0,216.5 L 582.5,217.0 L 583.0,217.5 L 584.0,217.5 L 585.0,217.5 L 585.5,218.0 L 586.0,218.5 L 587.0,218.5 L 588.0,218.5 L 588.5,219.0 L 589.0,219.5 L 590.0,219.5 L 591.0,219.5 L 591.5,220.0 L 592.0,220.5 L 593.0,220.5 L 594.0,220.5 L 594.5,221.0 L 595.0,221.5 L 596.0,221.5 L 596.5,222.0 L 597.0,222.5 L 598.0,222.5 L 598.5,223.0 L 599.0,223.5 L 600.0,223.5 L 601.0,223.5 L 601.5,224.0 L 602.0,224.5 L 603.0,224.5 L 603.5,225.0 L 604.0,225.5 L 605.0,225.5 L 605.5,226.0 L 606.0,226.5 L 607.0,226.5 L 607.5,227.0 L 608.0,227.5 L 609.0,227.5 L 609.5,228.0 L 610.0,228.5 L 611.0,228.5 L 611.5,229.0 L 612.0,229.5 L 613.0,229.5 L 613.5,230.0 L 614.0,230.5 L 615.0,230.5 L 615.5,231.0 L 616.0,231.5 L 617.0,231.5 L 617.5,232.0 L 618.0,232.5 L 619.0,232.5 L 619.5,233.0 L 620.0,233.5 L 621.0,233.5 L 621.5,234.0 L 622.0,234.5 L 623.0,234.5 L 623.5,235.0 L 624.0,235.5 L 624.5,236.0 L 625.0,236.5 L 626.0,236.5 L 626.5,237.0 L 627.0,237.5 L 628.0,237.5 L 628.5,238.0 L 629.0,238.5 L 630.0,238.5 L 630.5,239.0 L 631.0,239.5 L 632.0,239.5 L 632.5,240.0 L 633.0,240.5 L 633.5,241.0 L 634.0,241.5 L 635.0,241.5 L 635.5,242.0 L 636.0,242.5 L 637.0,242.5 L 637.5,243.0 L 638.0,243.5 L 639.0,243.5 L 639.5,243.0 L 639.5,242.0 L 639.0,241.5 L 638.5,241.0 L 638.5,240.0 L 638.0,239.5 L 637.5,239.0 L 637.5,238.0 L 637.0,237.5 L 636.5,237.0 L 636.0,236.5 L 635.5,236.0 L 635.0,235.5 L 634.5,235.0 L 634.5,234.0 L 634.0,233.5 L 633.5,233.0 L 633.0,232.5 L 632.5,232.0 L 632.0,231.5 L 631.5,231.0 L 631.0,230.5 L 630.5,230.0 L 630.0,229.5 L 629.5,229.0 L 629.0,228.5 L 628.5,228.0 L 628.0,227.5 L 627.0,227.5 L 626.5,227.0 L 626.0,226.5 L 625.5,226.0 L 625.0,225.5 L 624.5,225.0 L 624.0,224.5 L 623.5,224.0 L 623.0,223.5 L 622.0,223.5 L 621.5,223.0 L 621.0,222.5 L 620.5,222.0 L 620.0,221.5 L 619.5,221.0 L 619.0,220.5 L 618.0,220.5 L 617.5,220.0 L 617.0,219.5 L 616.5,219.0 L 616.0,218.5 L 615.0,218.5 L 614.5,218.0 L 614.0,217.5 L 613.5,217.0 L 613.0,216.5 L 612.0,216.5 L 611.5,216.0 L 611.0,215.5 L 610.5,215.0 L 610.0,214.5 L 609.0,214.5 L 608.5,214.0 L 608.0,213.5 L 607.0,213.5 L 606.5,213.0 L 606.0,212.5 L 605.5,212.0 L 605.0,211.5 L 604.0,211.5 L 603.5,211.0 L 603.0,210.5 L 602.0,210.5 L 601.5,210.0 L 601.0,209.5 L 600.0,209.5 L 599.5,209.0 L 599.0,208.5 L 598.0,208.5 L 597.5,208.0 L 597.0,207.5 L 596.0,207.5 L 595.5,207.0 L 595.0,206.5 L 594.0,206.5 L 593.5,206.0 L 593.0,205.5 L 592.0,205.5 L 591.0,205.5 L 590.5,205.0 L 590.0,204.5 L 589.0,204.5 L 588.5,204.0 L 588.0,203.5 L 587.0,203.5 L 586.0,203.5 L 585.5,203.0 L 585.0,202.5 L 584.0,202.5 L 583.0,202.5 L 582.5,202.0 L 582.0,201.5 L 581.0,201.5 L 580.0,201.5 L 579.0,201.5 L 578.5,201.0 L 578.0,200.5 L 577.0,200.5 L 576.0,200.5 L 575.0,200.5 L 574.0,200.5 L 573.5,200.0 L 573.0,199.5 L 572.0,199.5 L 571.0,199.5 L 570.0,199.5 L 569.0,199.5 L 568.0,199.5 L 567.5,199.0 L 567.0,198.5 L 566.0,198.5 L 565.0,198.5 L 564.0,198.5 L 563.0,198.5 L 562.0,198.5 L 561.5,198.0 L 561.0,197.5 L 560.0,197.5 L 559.0,197.5 L 558.0,197.5 L 557.0,197.5 L 556.0,197.5 L 555.5,197.0 L 555.0,196.5 L 554.0,196.5 L 553.0,196.5 L 552.0,196.5 L 551.0,196.5 L 550.5,196.0 L 550.0,195.5 L 549.0,195.5 L 548.0,195.5 L 547.0,195.5 L 546.0,195.5 L 545.0,195.5 L 544.0,195.5 L 543.0,195.5 L 542.0,195.5 L 541.0,195.5 L 540.5,195.0 L 540.0,194.5 L 539.0,194.5 L 538.0,194.5 L 537.0,194.5 L 536.0,194.5 L 535.0,194.5 L 534.0,194.5 L 533.0,194.5 L 532.0,194.5 L 531.0,194.5 L 530.0,194.5 L 529.0,194.5 L 528.0,194.5 L 527.0,194.5 L 526.5,195.0 L 526.0,195.5 L 525.0,195.5 L 524.0,195.5 L 523.0,195.5 L 522.0,195.5 L 521.0,195.5 L 520.0,195.5 L 519.0,195.5 L 518.0,195.5 L 517.0,195.5 L 516.5,196.0 L 516.0,196.5 L 515.0,196.5 L 514.0,196.5 L 513.0,196.5 L 512.0,196.5 L 511.5,197.0 L 511.0,197.5 L 510.0,197.5 L 509.0,197.5 L 508.0,197.5 L 507.0,197.5 L 506.5,198.0 L 506.0,198.5 L 505.0,198.5 L 504.0,198.5 L 503.0,198.5 L 502.5,199.0 L 502.0,199.5 L 501.0,199.5 L 500.0,199.5 L 499.5,200.0 L 499.0,200.5 L 498.0,200.5 L 497.0,200.5 L 496.5,201.0 L 496.0,201.5 L 495.0,201.5 L 494.0,201.5 L 493.5,202.0 L 493.0,202.5 L 492.0,202.5 L 491.5,203.0 L 491.0,203.5 L 490.0,203.5 L 489.5,204.0 L 489.0,204.5 L 488.5,205.0 L 488.0,205.5 L 487.5,206.0 L 487.0,206.5 L 486.0,206.5 L 485.5,207.0 L 485.0,207.5 L 484.5,208.0 L 484.0,208.5 L 483.5,209.0 L 483.0,209.5 L 482.5,210.0 L 482.0,210.5 L 481.5,211.0 L 481.0,211.5 L 480.5,212.0 L 480.0,212.5 L 479.5,213.0 L 479.0,213.5 L 478.5,214.0 L 478.0,214.5 L 477.5,215.0 L 477.0,215.5 L 476.5,216.0 L 476.0,216.5 L 475.5,217.0 L 475.0,217.5 L 474.5,218.0 L 474.5,219.0 L 474.0,219.5 L 473.5,220.0 L 473.0,220.5 L 472.5,221.0 L 472.5,222.0 L 472.0,222.5 L 471.5,223.0 L 471.5,224.0 L 471.5,225.0 L 471.0,225.5 L 470.5,226.0 L 470.5,227.0 L 470.0,227.5 L 469.5,228.0 L 469.5,229.0 L 469.5,230.0 L 469.5,231.0 L 469.0,231.5 L 468.5,232.0 L 468.5,233.0 L 468.5,234.0 L 468.0,234.5 L 467.5,235.0 L 467.5,236.0 L 467.5,237.0 L 467.5,238.0 L 467.5,239.0 L 467.5,240.0 L 467.0,240.5 L 466.5,241.0 L 466.5,242.0 L 466.5,243.0 L 466.5,244.0 L 466.5,245.0 L 466.5,246.0 L 466.0,246.5 L 465.5,247.0 L 465.5,248.0 L 465.5,249.0 L 465.5,250.0 L 465.5,251.0 L 465.5,252.0 L 465.5,253.0 L 465.5,254.0 L 465.5,255.0 L 465.5,256.0 L 465.5,257.0 L 465.5,258.0 L 465.5,259.0 L 465.5,260.0 L 465.5,261.0 L 465.5,262.0 L 465.5,263.0 L 465.5,264.0 L 465.5,265.0 L 465.5,266.0 L 465.5,267.0 L 465.5,268.0 L 465.5,269.0 L 465.5,270.0 L 466.0,270.5 L 466.5,271.0 L 466.5,272.0 L 466.5,273.0 L 466.5,274.0 L 466.5,275.0 L 466.5,276.0 L 467.0,276.5 L 467.5,277.0 L 467.5,278.0 L 467.5,279.0 L 467.5,280.0 L 467.5,281.0 L 467.5,282.0 L 468.0,282.5 L 468.5,283.0 L 468.5,284.0 L 468.5,285.0 L 468.5,286.0 L 469.0,286.5 L 469.5,287.0 L 469.5,288.0 L 469.5,289.0 L 469.5,290.0 L 470.0,290.5 L 470.5,291.0 L 470.5,292.0 L 470.5,293.0 L 470.5,294.0 L 471.0,294.5 L 471.5,295.0 L 471.5,296.0 L 471.5,297.0 L 472.0,297.5 L 472.5,298.0 L 472.5,299.0 L 472.5,300.0 L 473.0,300.5 L 473.5,301.0 L 473.5,302.0 L 473.5,303.0 L 474.0,303.5 L 474.5,304.0 L 474.5,305.0 L 474.5,306.0 L 475.0,306.5 L 475.5,307.0 L 475.5,308.0 L 475.5,309.0 L 476.0,309.5 L 476.5,310.0 L 476.5,311.0 L 476.5,312.0 L 477.0,312.5 L 477.5,313.0 L 477.5,314.0 L 478.0,314.5 L 478.5,315.0 L 478.5,316.0 L 478.5,317.0 L 479.0,317.5 L 479.5,318.0 L 479.5,319.0 L 480.0,319.5 L 480.5,320.0 L 480.5,321.0 L 481.0,321.5 L 481.5,322.0 L 481.5,323.0 L 482.0,323.5 L 482.5,324.0 L 482.5,325.0 L 483.0,325.5 L 483.5,326.0 L 483.5,327.0 L 483.5,328.0 L 484.0,328.5 L 484.5,329.0 L 484.5,330.0 L 485.0,330.5 L 485.5,331.0 L 486.0,331.5 L 486.5,332.0 L 486.5,333.0 L 487.0,333.5 L 487.5,334.0 L 487.5,335.0 L 488.0,335.5 L 488.5,336.0 L 488.5,337.0 L 489.0,337.5 L 489.5,338.0 L 490.0,338.5 L 490.5,339.0 L 490.5,340.0 L 491.0,340.5 L 491.5,341.0 L 491.5,342.0 L 492.0,342.5 L 492.5,343.0 L 493.0,343.5 L 493.5,344.0 L 494.0,344.5 L 494.5,345.0 L 494.5,346.0 L 495.0,346.5 L 495.5,347.0 L 496.0,347.5 L 496.5,348.0 L 497.0,348.5 L 497.5,349.0 L 498.0,349.5 L 498.5,350.0 L 499.0,350.5 L 499.5,351.0 L 500.0,351.5 L 500.5,352.0 L 501.0,352.5 L 501.5,353.0 L 502.0,353.5 L 502.5,354.0 L 503.0,354.5 L 503.5,355.0 L 504.0,355.5 L 504.5,356.0 L 505.0,356.5 L 506.0,356.5 L 506.5,357.0 L 507.0,357.5 L 508.0,357.5 L 509.0,357.5 L 509.5,357.0 Z" fill="#111111" stroke="none"/>
  <path d="M 734.0,236.5 L 733.0,236.5 L 732.5,236.0 L 732.0,235.5 L 731.5,235.0 L 731.0,234.5 L 730.5,234.0 L 730.0,233.5 L 729.5,233.0 L 729.0,232.5 L 728.0,232.5 L 727.5,232.0 L 727.0,231.5 L 726.5,231.0 L 726.0,230.5 L 725.5,230.0 L 725.0,229.5 L 724.5,229.0 L 724.0,228.5 L 723.5,228.0 L 723.0,227.5 L 722.5,227.0 L 722.0,226.5 L 721.0,226.5 L 720.5,226.0 L 720.0,225.5 L 719.5,225.0 L 719.0,224.5 L 718.0,224.5 L 717.5,224.0 L 717.0,223.5 L 716.0,223.5 L 715.5,223.0 L 715.0,222.5 L 714.0,222.5 L 713.5,222.0 L 713.0,221.5 L 712.0,221.5 L 711.5,221.0 L 711.0,220.5 L 710.5,220.0 L 710.0,219.5 L 709.0,219.5 L 708.5,219.0 L 708.0,218.5 L 707.5,218.0 L 707.5,217.0 L 707.0,216.5 L 706.5,216.0 L 706.5,215.0 L 706.0,214.5 L 705.5,214.0 L 705.5,213.0 L 705.5,212.0 L 705.5,211.0 L 705.0,210.5 L 704.5,210.0 L 704.5,209.0 L 705.0,208.5 L 705.5,209.0 L 706.0,209.5 L 706.5,210.0 L 707.0,210.5 L 708.0,210.5 L 708.5,211.0 L 709.0,211.5 L 709.5,212.0 L 710.0,212.5 L 711.0,212.5 L 711.5,213.0 L 712.0,213.5 L 712.5,214.0 L 713.0,214.5 L 714.0,214.5 L 714.5,215.0 L 715.0,215.5 L 715.5,216.0 L 716.0,216.5 L 716.5,217.0 L 717.0,217.5 L 718.0,217.5 L 718.5,218.0 L 719.0,218.5 L 719.5,219.0 L 720.0,219.5 L 721.0,219.5 L 721.5,220.0 L 722.0,220.5 L 722.5,221.0 L 723.0,221.5 L 724.0,221.5 L 724.5,222.0 L 725.0,222.5 L 725.5,223.0 L 726.0,223.5 L 726.5,224.0 L 727.0,224.5 L 728.0,224.5 L 728.5,225.0 L 729.0,225.5 L 729.5,226.0 L 730.0,226.5 L 730.5,227.0 L 730.5,228.0 L 731.0,228.5 L 731.5,229.0 L 732.0,229.5 L 732.5,230.0 L 732.5,231.0 L 733.0,231.5 L 733.5,232.0 L 733.5,233.0 L 733.5,234.0 L 734.0,234.5 L 734.5,235.0 L 734.5,236.0 L 734.0,236.5 Z" fill="#111111" stroke="none"/>
  <path d="M 588.0,420.5 L 582.0,419.5 L 576.0,418.5 L 570.0,417.5 L 564.0,416.5 L 559.0,414.5 L 554.0,412.5 L 549.0,410.5 L 544.0,408.5 L 539.0,406.5 L 534.5,404.0 L 530.0,401.5 L 525.5,399.0 L 521.0,396.5 L 517.0,393.5 L 512.5,391.0 L 508.5,388.0 L 504.5,385.0 L 500.5,382.0 L 497.0,378.5 L 493.0,375.5 L 489.0,372.5 L 485.0,369.5 L 481.5,366.0 L 478.0,362.5 L 474.5,359.0 L 471.0,355.5 L 467.5,352.0 L 464.0,348.5 L 460.5,345.0 L 457.5,341.0 L 454.5,337.0 L 451.5,333.0 L 448.0,329.5 L 444.5,329.0 L 443.5,335.0 L 442.5,341.0 L 442.5,348.0 L 443.5,354.0 L 443.5,361.0 L 444.0,367.5 L 444.5,374.0 L 444.5,381.0 L 441.5,382.0 L 437.5,379.0 L 434.0,375.5 L 431.0,371.5 L 428.0,367.5 L 425.5,363.0 L 423.0,358.5 L 420.5,354.0 L 418.5,349.0 L 416.0,344.5 L 414.0,339.5 L 412.0,334.5 L 410.5,329.0 L 409.0,323.5 L 407.5,318.0 L 406.5,312.0 L 406.0,305.5 L 405.5,299.0 L 404.5,293.0 L 404.5,286.0 L 404.5,279.0 L 405.0,272.5 L 405.5,266.0 L 406.5,260.0 L 404.0,255.5 L 399.0,257.5 L 395.0,260.5 L 391.0,263.5 L 387.5,267.0 L 384.5,271.0 L 381.0,274.5 L 378.5,279.0 L 375.5,283.0 L 372.5,287.0 L 370.0,291.5 L 367.5,296.0 L 365.0,300.5 L 362.5,305.0 L 360.5,310.0 L 358.5,315.0 L 356.0,319.5 L 352.5,318.0 L 352.5,311.0 L 352.5,306.0 L 352.5,299.0 L 353.5,293.0 L 354.5,287.0 L 355.5,281.0 L 356.5,275.0 L 357.5,269.0 L 359.5,264.0 L 361.0,258.5 L 363.0,253.5 L 364.5,248.0 L 367.0,243.5 L 369.0,238.5 L 371.5,234.0 L 374.0,229.5 L 376.5,225.0 L 379.5,221.0 L 382.5,217.0 L 385.5,213.0 L 388.5,209.0 L 392.0,205.5 L 395.0,201.5 L 398.5,198.0 L 402.0,194.5 L 405.5,191.0 L 409.0,187.5 L 412.5,184.0 L 416.5,181.0 L 420.0,177.5 L 424.0,174.5 L 428.0,171.5 L 432.0,168.5 L 437.0,166.5 L 442.0,164.5 L 441.0,159.5 L 438.0,155.5 L 434.0,152.5 L 430.0,149.5 L 425.0,147.5 L 419.5,146.0 L 414.0,144.5 L 408.0,143.5 L 402.0,142.5 L 396.0,141.5 L 392.0,139.5 L 397.5,138.0 L 403.0,136.5 L 410.0,136.5 L 416.0,135.5 L 423.0,135.5 L 429.0,134.5 L 436.0,134.5 L 443.0,134.5 L 450.0,134.5 L 457.0,134.5 L 464.0,134.5 L 471.0,134.5 L 478.0,134.5 L 484.0,135.5 L 491.0,135.5 L 497.0,136.5 L 504.0,136.5 L 510.0,137.5 L 516.0,138.5 L 522.0,139.5 L 528.0,140.5 L 534.0,141.5 L 539.5,143.0 L 545.0,144.5 L 551.0,145.5 L 556.0,147.5 L 562.0,148.5 L 567.0,150.5 L 572.0,152.5 L 577.0,154.5 L 582.0,156.5 L 586.5,159.0 L 591.0,161.5 L 595.5,164.0 L 600.0,166.5 L 604.0,169.5 L 608.0,172.5 L 612.0,175.5 L 615.5,179.0 L 619.5,182.0 L 623.0,185.5 L 626.5,189.0 L 629.5,193.0 L 632.5,197.0 L 635.5,201.0 L 638.5,205.0 L 640.5,210.0 L 643.0,214.5 L 645.5,219.0 L 646.5,225.0 L 647.5,231.0 L 652.0,229.5 L 650.5,225.0 L 649.5,219.0 L 655.0,217.5 L 660.0,219.5 L 665.0,221.5 L 669.5,224.0 L 673.5,227.0 L 677.5,230.0 L 681.0,233.5 L 684.0,237.5 L 687.0,241.5 L 689.0,246.5 L 690.5,252.0 L 688.0,256.5 L 683.0,258.5 L 678.0,260.5 L 673.0,262.5 L 667.0,263.5 L 661.0,264.5 L 654.0,264.5 L 647.0,264.5 L 641.0,263.5 L 636.0,261.5 L 631.0,262.5 L 635.5,265.0 L 641.0,266.5 L 647.0,267.5 L 653.0,268.5 L 660.0,268.5 L 666.0,267.5 L 671.5,266.0 L 676.0,263.5 L 682.0,262.5 L 688.0,261.5 L 690.5,266.0 L 692.5,271.0 L 694.5,276.0 L 697.0,280.5 L 700.0,284.5 L 703.0,288.5 L 707.0,291.5 L 707.5,287.0 L 704.5,283.0 L 702.5,278.0 L 700.0,273.5 L 698.0,268.5 L 696.5,263.0 L 695.0,257.5 L 693.5,252.0 L 692.5,246.0 L 691.5,240.0 L 689.5,235.0 L 686.5,231.0 L 683.0,227.5 L 679.0,224.5 L 675.0,221.5 L 670.5,219.0 L 666.0,216.5 L 661.0,214.5 L 656.0,212.5 L 651.0,210.5 L 646.5,208.0 L 643.5,204.0 L 641.5,199.0 L 638.5,195.0 L 636.0,190.5 L 633.5,186.0 L 630.0,182.5 L 627.0,178.5 L 623.5,175.0 L 620.0,171.5 L 616.5,168.0 L 613.0,164.5 L 609.5,161.0 L 605.5,158.0 L 601.5,155.0 L 597.5,152.0 L 593.0,149.5 L 589.0,146.5 L 584.5,144.0 L 580.0,141.5 L 576.0,138.5 L 571.0,136.5 L 566.5,134.0 L 562.0,131.5 L 557.0,129.5 L 552.5,127.0 L 548.0,124.5 L 543.0,122.5 L 538.0,120.5 L 533.0,118.5 L 528.0,116.5 L 523.0,114.5 L 518.0,112.5 L 513.0,110.5 L 508.0,108.5 L 502.5,107.0 L 497.0,105.5 L 492.0,103.5 L 486.5,102.0 L 481.0,100.5 L 475.0,99.5 L 470.0,97.5 L 464.5,96.0 L 466.0,92.5 L 473.0,92.5 L 480.0,92.5 L 487.0,92.5 L 493.0,93.5 L 499.5,94.0 L 506.0,94.5 L 512.0,95.5 L 518.0,96.5 L 524.0,97.5 L 530.0,98.5 L 535.0,100.5 L 541.0,101.5 L 546.5,103.0 L 552.0,104.5 L 557.0,106.5 L 562.5,108.0 L 568.0,109.5 L 573.0,111.5 L 578.0,113.5 L 583.0,115.5 L 587.5,118.0 L 592.0,120.5 L 597.0,122.5 L 602.0,124.5 L 606.5,127.0 L 611.0,129.5 L 616.0,131.5 L 620.0,134.5 L 624.5,137.0 L 627.0,136.5 L 624.5,132.0 L 622.0,127.5 L 619.0,123.5 L 616.0,119.5 L 613.0,115.5 L 610.0,111.5 L 606.5,108.0 L 603.0,104.5 L 599.5,101.0 L 596.0,97.5 L 592.5,94.0 L 589.0,90.5 L 585.0,87.5 L 581.5,84.0 L 577.0,81.5 L 573.0,78.5 L 569.0,75.5 L 565.0,72.5 L 561.0,69.5 L 556.5,67.0 L 552.0,64.5 L 548.0,61.5 L 544.0,58.5 L 543.0,55.5 L 548.5,57.0 L 554.0,58.5 L 559.0,60.5 L 563.5,63.0 L 568.5,65.0 L 573.0,67.5 L 578.0,69.5 L 582.0,72.5 L 587.0,74.5 L 591.0,77.5 L 596.0,79.5 L 600.0,82.5 L 604.5,85.0 L 609.0,87.5 L 613.0,90.5 L 617.5,93.0 L 622.0,95.5 L 626.0,98.5 L 629.5,102.0 L 633.5,105.0 L 637.0,108.5 L 641.0,111.5 L 645.0,114.5 L 649.0,117.5 L 652.5,121.0 L 656.5,124.0 L 660.0,127.5 L 664.0,130.5 L 667.0,134.5 L 670.5,138.0 L 673.5,142.0 L 676.5,146.0 L 679.5,150.0 L 683.0,153.5 L 686.0,157.5 L 688.5,157.0 L 687.5,151.0 L 687.5,144.0 L 686.5,138.0 L 686.5,131.0 L 686.5,124.0 L 687.5,118.0 L 689.0,112.5 L 691.5,108.0 L 694.5,107.0 L 696.5,112.0 L 698.0,117.5 L 699.5,123.0 L 701.5,128.0 L 702.5,134.0 L 704.5,139.0 L 706.5,144.0 L 708.5,149.0 L 710.5,154.0 L 712.5,159.0 L 714.5,164.0 L 717.0,168.5 L 719.5,173.0 L 721.5,178.0 L 724.5,182.0 L 727.0,186.5 L 729.5,191.0 L 732.5,195.0 L 735.5,199.0 L 738.5,203.0 L 741.5,207.0 L 744.5,211.0 L 747.5,215.0 L 751.0,218.5 L 754.5,222.0 L 758.0,225.5 L 761.5,229.0 L 765.0,232.5 L 769.0,235.5 L 773.0,238.5 L 777.0,241.5 L 781.0,244.5 L 785.5,247.0 L 790.0,249.5 L 794.0,252.5 L 799.0,254.5 L 804.0,256.5 L 809.0,258.5 L 813.5,261.0 L 817.5,264.0 L 819.5,269.0 L 821.5,274.0 L 823.5,279.0 L 825.5,284.0 L 828.0,288.5 L 830.5,293.0 L 833.5,297.0 L 836.5,301.0 L 840.5,304.0 L 844.0,307.5 L 844.5,314.0 L 843.5,320.0 L 841.5,325.0 L 839.0,329.5 L 836.0,333.5 L 833.5,338.0 L 830.0,341.5 L 824.5,342.0 L 822.5,337.0 L 820.5,332.0 L 818.5,327.0 L 815.5,323.0 L 812.5,319.0 L 809.0,315.5 L 805.0,312.5 L 800.5,310.0 L 796.0,307.5 L 791.0,305.5 L 786.0,303.5 L 781.0,301.5 L 776.5,299.0 L 771.5,297.0 L 766.0,295.5 L 761.0,293.5 L 755.5,292.0 L 749.5,291.0 L 743.0,290.5 L 736.0,290.5 L 730.5,292.0 L 725.0,293.5 L 720.5,296.0 L 715.5,297.0 L 711.5,294.0 L 709.5,294.0 L 712.0,298.5 L 715.5,302.0 L 719.0,305.5 L 723.0,308.5 L 726.0,312.5 L 729.5,316.0 L 733.0,319.5 L 736.5,323.0 L 740.0,326.5 L 744.0,329.5 L 747.5,333.0 L 751.5,336.0 L 756.0,338.5 L 762.0,339.5 L 768.0,340.5 L 774.5,341.0 L 780.5,342.0 L 782.5,345.0 L 779.5,349.0 L 773.5,350.0 L 767.0,350.5 L 761.0,351.5 L 754.5,351.0 L 749.0,349.5 L 744.0,347.5 L 740.0,344.5 L 736.5,341.0 L 733.5,337.0 L 730.5,333.0 L 727.0,329.5 L 723.5,326.0 L 719.5,323.0 L 715.0,320.5 L 711.0,317.5 L 707.0,314.5 L 702.0,312.5 L 698.0,309.5 L 693.0,307.5 L 688.5,305.0 L 684.0,302.5 L 679.0,300.5 L 674.5,298.0 L 670.0,295.5 L 665.5,293.0 L 661.0,290.5 L 656.5,288.0 L 652.5,285.0 L 648.0,282.5 L 644.0,279.5 L 640.0,276.5 L 636.0,273.5 L 632.0,270.5 L 628.0,267.5 L 624.0,264.5 L 621.5,260.0 L 627.0,260.5 L 628.0,259.5 L 624.0,256.5 L 619.5,254.0 L 615.5,251.0 L 612.5,247.0 L 610.0,242.5 L 612.0,240.5 L 617.0,242.5 L 622.0,244.5 L 627.5,246.0 L 633.0,247.5 L 640.0,247.5 L 645.0,245.5 L 648.0,241.5 L 649.5,236.0 L 645.0,235.5 L 641.0,232.5 L 637.5,229.0 L 633.5,226.0 L 630.0,222.5 L 626.0,219.5 L 622.0,216.5 L 618.0,213.5 L 613.5,211.0 L 609.0,208.5 L 605.0,205.5 L 600.0,203.5 L 595.0,201.5 L 590.0,199.5 L 585.0,197.5 L 579.0,196.5 L 574.0,194.5 L 568.0,193.5 L 562.0,192.5 L 556.0,191.5 L 550.0,190.5 L 544.0,189.5 L 537.0,189.5 L 530.0,189.5 L 523.0,189.5 L 516.0,189.5 L 510.0,190.5 L 504.0,191.5 L 499.0,193.5 L 493.5,195.0 L 489.0,197.5 L 484.0,199.5 L 480.0,202.5 L 476.0,205.5 L 472.5,209.0 L 469.5,213.0 L 466.5,217.0 L 464.0,221.5 L 461.5,226.0 L 459.5,231.0 L 458.5,237.0 L 457.5,243.0 L 456.5,249.0 L 456.5,256.0 L 456.5,263.0 L 457.5,269.0 L 458.5,275.0 L 459.5,281.0 L 460.5,287.0 L 462.5,292.0 L 464.0,297.5 L 466.0,302.5 L 467.5,308.0 L 470.0,312.5 L 472.5,317.0 L 474.5,322.0 L 477.0,326.5 L 479.5,331.0 L 482.5,335.0 L 485.5,339.0 L 488.0,343.5 L 491.0,347.5 L 494.5,351.0 L 497.5,355.0 L 501.0,358.5 L 504.5,362.0 L 508.0,365.5 L 511.5,369.0 L 515.5,372.0 L 519.0,375.5 L 523.0,378.5 L 527.0,381.5 L 531.0,384.5 L 535.0,387.5 L 539.0,390.5 L 543.0,393.5 L 547.5,396.0 L 551.5,399.0 L 556.0,401.5 L 560.5,404.0 L 565.0,406.5 L 569.5,409.0 L 574.0,411.5 L 579.0,413.5 L 584.0,415.5 L 588.5,418.0 Z" fill="#ffffff" stroke="none"/>
  <path d="M 650.0,627.5 L 643.0,627.5 L 636.0,627.5 L 630.0,626.5 L 623.0,626.5 L 617.0,625.5 L 611.0,624.5 L 605.0,623.5 L 599.0,622.5 L 593.5,621.0 L 588.0,619.5 L 582.0,618.5 L 577.0,616.5 L 571.5,615.0 L 566.0,613.5 L 561.0,611.5 L 556.0,609.5 L 551.0,607.5 L 546.0,605.5 L 541.0,603.5 L 536.0,601.5 L 531.0,599.5 L 526.5,597.0 L 522.0,594.5 L 517.0,592.5 L 512.0,590.5 L 507.5,588.0 L 502.5,586.0 L 498.0,583.5 L 493.0,581.5 L 488.0,579.5 L 483.5,577.0 L 479.0,574.5 L 474.0,572.5 L 469.0,570.5 L 464.5,568.0 L 460.0,565.5 L 455.5,563.0 L 451.0,560.5 L 446.5,558.0 L 442.0,555.5 L 437.5,553.0 L 433.0,550.5 L 429.0,547.5 L 424.5,545.0 L 420.0,542.5 L 415.5,540.0 L 411.0,537.5 L 405.0,536.5 L 400.0,538.5 L 395.0,540.5 L 390.5,543.0 L 386.0,545.5 L 382.0,548.5 L 377.5,551.0 L 373.5,554.0 L 369.0,556.5 L 364.5,559.0 L 360.0,561.5 L 356.0,564.5 L 351.5,567.0 L 347.0,569.5 L 343.0,572.5 L 338.0,574.5 L 334.0,577.5 L 329.5,580.0 L 325.0,582.5 L 321.0,585.5 L 316.5,588.0 L 312.0,590.5 L 307.0,592.5 L 302.5,595.0 L 298.0,597.5 L 293.0,599.5 L 288.0,601.5 L 282.5,603.0 L 277.0,604.5 L 271.5,606.0 L 266.0,607.5 L 260.0,608.5 L 254.0,609.5 L 247.5,610.0 L 241.0,610.5 L 235.0,611.5 L 228.0,611.5 L 221.0,611.5 L 214.0,611.5 L 208.0,610.5 L 201.0,610.5 L 195.0,609.5 L 188.0,609.5 L 182.0,608.5 L 176.0,607.5 L 169.5,607.0 L 163.0,606.5 L 158.0,604.5 L 153.0,602.5 L 148.0,600.5 L 143.0,598.5 L 138.0,596.5 L 133.0,594.5 L 128.5,592.0 L 124.5,589.0 L 120.0,586.5 L 116.0,583.5 L 112.0,580.5 L 108.0,577.5 L 104.0,574.5 L 100.0,571.5 L 96.5,568.0 L 93.0,564.5 L 89.5,561.0 L 86.0,557.5 L 83.0,553.5 L 80.0,549.5 L 77.0,545.5 L 74.5,541.0 L 72.0,536.5 L 69.5,532.0 L 67.0,527.5 L 65.0,522.5 L 62.5,518.0 L 61.0,512.5 L 59.5,507.0 L 57.5,502.0 L 56.0,496.5 L 54.5,491.0 L 53.5,485.0 L 52.5,479.0 L 51.5,473.0 L 50.5,467.0 L 49.5,461.0 L 49.5,454.0 L 49.5,447.0 L 49.5,440.0 L 49.5,433.0 L 49.5,426.0 L 50.5,420.0 L 51.5,414.0 L 52.5,408.0 L 53.0,401.5 L 54.0,395.5 L 55.5,390.0 L 56.5,384.0 L 57.5,378.0 L 59.0,372.5 L 60.5,367.0 L 62.0,361.5 L 63.5,356.0 L 65.5,351.0 L 67.5,346.0 L 69.0,340.5 L 71.0,335.5 L 73.0,330.5 L 75.5,326.0 L 77.5,321.0 L 79.5,316.0 L 82.0,311.5 L 84.5,307.0 L 87.0,302.5 L 89.5,298.0 L 92.0,293.5 L 95.0,289.5 L 97.5,285.0 L 100.5,281.0 L 103.5,277.0 L 106.5,273.0 L 109.5,269.0 L 112.5,265.0 L 116.0,261.5 L 119.0,257.5 L 122.5,254.0 L 125.5,250.0 L 129.0,246.5 L 132.0,242.5 L 136.0,239.5 L 139.5,236.0 L 143.5,233.0 L 147.5,230.0 L 151.0,226.5 L 155.0,223.5 L 159.0,220.5 L 163.0,217.5 L 167.0,214.5 L 171.0,211.5 L 175.5,209.0 L 179.5,206.0 L 184.0,203.5 L 188.0,200.5 L 192.0,197.5 L 196.5,195.0 L 201.0,192.5 L 205.5,190.0 L 210.0,187.5 L 215.0,185.5 L 219.5,183.0 L 224.0,180.5 L 229.0,178.5 L 234.0,176.5 L 239.0,174.5 L 244.0,172.5 L 249.0,170.5 L 254.0,168.5 L 259.0,166.5 L 264.5,165.0 L 270.0,163.5 L 275.0,161.5 L 281.0,160.5 L 286.0,158.5 L 292.0,157.5 L 298.0,156.5 L 296.5,161.0 L 292.5,164.0 L 288.0,166.5 L 284.0,169.5 L 280.0,172.5 L 275.5,175.0 L 271.5,178.0 L 267.5,181.0 L 263.0,183.5 L 259.0,186.5 L 255.0,189.5 L 251.0,192.5 L 247.0,195.5 L 242.5,198.0 L 238.5,201.0 L 234.5,204.0 L 230.5,207.0 L 226.0,209.5 L 222.0,212.5 L 218.0,215.5 L 214.0,218.5 L 210.0,221.5 L 206.0,224.5 L 202.0,227.5 L 198.5,231.0 L 194.5,234.0 L 191.0,237.5 L 187.5,241.0 L 184.0,244.5 L 180.5,248.0 L 177.0,251.5 L 173.5,255.0 L 170.5,259.0 L 167.5,263.0 L 164.5,267.0 L 161.5,271.0 L 158.5,275.0 L 155.5,279.0 L 153.0,283.5 L 150.5,288.0 L 147.5,292.0 L 145.0,296.5 L 142.5,301.0 L 140.5,306.0 L 138.0,310.5 L 136.0,315.5 L 134.0,320.5 L 132.0,325.5 L 130.0,330.5 L 128.5,336.0 L 126.5,341.0 L 124.5,346.0 L 123.0,351.5 L 121.5,357.0 L 120.5,363.0 L 118.5,368.0 L 118.5,375.0 L 117.5,381.0 L 117.5,388.0 L 118.0,394.5 L 118.5,401.0 L 118.5,408.0 L 118.5,415.0 L 118.5,422.0 L 119.5,428.0 L 120.5,434.0 L 121.0,440.5 L 122.0,446.5 L 123.5,452.0 L 124.5,458.0 L 126.5,463.0 L 128.0,468.5 L 130.0,473.5 L 132.0,478.5 L 134.5,483.0 L 137.0,487.5 L 140.0,491.5 L 143.0,495.5 L 146.0,499.5 L 149.5,503.0 L 153.0,506.5 L 156.0,510.5 L 160.0,513.5 L 164.0,516.5 L 168.0,519.5 L 172.5,522.0 L 177.0,524.5 L 182.0,526.5 L 187.0,528.5 L 192.0,530.5 L 196.5,533.0 L 201.5,535.0 L 206.0,537.5 L 211.0,539.5 L 216.0,541.5 L 222.0,542.5 L 227.0,544.5 L 233.0,545.5 L 239.0,546.5 L 245.0,547.5 L 251.0,548.5 L 257.0,549.5 L 264.0,549.5 L 271.0,549.5 L 278.0,549.5 L 285.0,549.5 L 291.0,548.5 L 298.0,548.5 L 304.0,547.5 L 310.0,546.5 L 316.0,545.5 L 321.5,544.0 L 327.0,542.5 L 333.0,541.5 L 339.0,540.5 L 344.0,538.5 L 349.0,536.5 L 354.0,534.5 L 358.5,532.0 L 363.0,529.5 L 368.0,527.5 L 373.0,525.5 L 378.0,523.5 L 383.0,521.5 L 380.5,518.0 L 377.0,514.5 L 373.0,511.5 L 368.5,509.0 L 364.0,506.5 L 360.0,503.5 L 355.5,501.0 L 351.0,498.5 L 346.0,496.5 L 341.0,494.5 L 336.0,492.5 L 331.0,490.5 L 325.5,489.0 L 320.0,487.5 L 314.0,486.5 L 308.0,485.5 L 302.0,484.5 L 295.0,484.5 L 288.0,484.5 L 281.0,484.5 L 274.0,484.5 L 268.0,485.5 L 262.0,486.5 L 256.0,487.5 L 250.0,488.5 L 244.0,489.5 L 238.0,490.5 L 232.0,491.5 L 226.5,493.0 L 221.0,494.5 L 215.0,495.5 L 208.5,495.0 L 212.0,491.5 L 216.0,488.5 L 220.0,485.5 L 225.0,483.5 L 230.0,481.5 L 235.0,479.5 L 240.5,478.0 L 246.0,476.5 L 251.0,474.5 L 257.0,473.5 L 262.0,471.5 L 268.0,470.5 L 275.0,470.5 L 281.0,469.5 L 288.0,469.5 L 295.0,469.5 L 302.0,469.5 L 309.0,469.5 L 315.0,470.5 L 321.0,471.5 L 327.0,472.5 L 332.5,474.0 L 338.0,475.5 L 343.5,477.0 L 349.0,478.5 L 354.0,480.5 L 359.0,482.5 L 363.5,485.0 L 368.5,487.0 L 373.0,489.5 L 378.0,491.5 L 382.0,494.5 L 387.0,496.5 L 391.0,499.5 L 395.5,502.0 L 400.0,504.5 L 405.0,506.5 L 410.5,507.0 L 416.0,505.5 L 421.0,503.5 L 426.0,501.5 L 430.5,499.0 L 435.0,496.5 L 440.0,494.5 L 444.5,492.0 L 449.5,490.0 L 454.0,487.5 L 459.0,485.5 L 464.0,483.5 L 469.0,481.5 L 474.0,479.5 L 479.0,477.5 L 485.0,476.5 L 490.0,474.5 L 496.0,473.5 L 502.0,472.5 L 508.0,471.5 L 514.0,470.5 L 521.0,470.5 L 528.0,470.5 L 535.0,470.5 L 541.0,471.5 L 548.0,471.5 L 553.5,473.0 L 559.0,474.5 L 564.5,476.0 L 570.0,477.5 L 574.5,480.0 L 578.5,483.0 L 581.5,487.0 L 584.0,490.5 L 577.0,490.5 L 570.0,490.5 L 563.0,490.5 L 556.0,490.5 L 549.0,490.5 L 542.0,490.5 L 535.0,490.5 L 528.0,490.5 L 522.0,491.5 L 516.0,492.5 L 510.0,493.5 L 504.0,494.5 L 498.0,495.5 L 492.5,497.0 L 487.0,498.5 L 481.0,499.5 L 476.0,501.5 L 470.5,503.0 L 465.5,505.0 L 460.5,507.0 L 456.0,509.5 L 451.0,511.5 L 446.5,514.0 L 442.0,516.5 L 437.5,519.0 L 432.0,520.5 L 432.0,524.5 L 435.5,528.0 L 439.0,531.5 L 443.0,534.5 L 447.0,537.5 L 451.5,540.0 L 456.0,542.5 L 460.5,545.0 L 465.0,547.5 L 469.5,550.0 L 474.0,552.5 L 479.0,554.5 L 483.5,557.0 L 488.0,559.5 L 493.0,561.5 L 498.0,563.5 L 502.5,566.0 L 507.5,568.0 L 512.5,570.0 L 518.0,571.5 L 523.0,573.5 L 528.0,575.5 L 533.5,577.0 L 539.0,578.5 L 544.0,580.5 L 550.0,581.5 L 556.0,582.5 L 562.0,583.5 L 563.5,580.0 L 560.5,576.0 L 557.5,572.0 L 554.5,568.0 L 551.5,564.0 L 549.0,559.5 L 546.5,555.0 L 544.5,550.0 L 542.5,545.0 L 540.5,540.0 L 539.5,534.0 L 538.5,528.0 L 538.5,521.0 L 542.5,519.0 L 545.5,523.0 L 548.5,527.0 L 551.5,531.0 L 554.5,535.0 L 558.0,538.5 L 561.5,542.0 L 565.5,545.0 L 569.5,548.0 L 574.0,550.5 L 578.0,553.5 L 582.5,556.0 L 587.0,558.5 L 592.0,560.5 L 597.0,562.5 L 602.0,564.5 L 607.0,566.5 L 612.5,568.0 L 618.0,569.5 L 625.0,569.5 L 630.5,570.0 L 637.0,569.5 L 643.0,568.5 L 648.0,566.5 L 652.5,564.0 L 656.5,561.0 L 660.5,558.0 L 663.5,554.0 L 666.5,550.0 L 668.5,545.0 L 670.5,540.0 L 671.5,534.0 L 673.0,528.5 L 673.5,522.0 L 674.5,516.0 L 673.0,512.5 L 669.0,515.5 L 664.5,518.0 L 660.5,521.0 L 656.5,524.0 L 652.0,526.5 L 647.5,529.0 L 642.0,530.5 L 637.0,532.5 L 630.0,532.5 L 629.0,529.5 L 631.5,525.0 L 633.5,520.0 L 635.5,515.0 L 637.5,510.0 L 638.5,504.0 L 640.5,499.0 L 641.5,493.0 L 642.5,487.0 L 642.5,480.0 L 642.5,473.0 L 642.5,466.0 L 641.5,460.0 L 640.5,454.0 L 638.5,449.0 L 636.5,444.0 L 634.5,439.0 L 632.5,434.0 L 630.5,429.0 L 627.5,425.0 L 625.0,420.5 L 622.0,416.5 L 619.0,412.5 L 616.0,408.5 L 613.0,404.5 L 609.5,401.0 L 606.5,397.0 L 603.0,393.5 L 599.5,390.0 L 596.0,386.5 L 592.0,383.5 L 588.5,380.0 L 584.5,377.0 L 580.5,374.0 L 576.5,371.0 L 572.5,368.0 L 568.5,365.0 L 564.5,362.0 L 560.0,359.5 L 556.0,356.5 L 551.5,354.0 L 546.5,352.0 L 542.5,349.0 L 546.5,347.0 L 552.0,348.5 L 558.0,349.5 L 563.5,351.0 L 569.0,352.5 L 574.0,354.5 L 579.5,356.0 L 585.0,357.5 L 590.0,359.5 L 595.0,361.5 L 600.0,363.5 L 605.0,365.5 L 610.0,367.5 L 615.0,369.5 L 619.5,372.0 L 624.0,374.5 L 629.0,376.5 L 633.5,379.0 L 638.0,381.5 L 642.5,384.0 L 647.0,386.5 L 651.0,389.5 L 655.5,392.0 L 659.5,395.0 L 664.0,397.5 L 668.0,400.5 L 672.0,403.5 L 676.0,406.5 L 679.5,410.0 L 683.5,413.0 L 687.0,416.5 L 691.0,419.5 L 694.5,423.0 L 698.0,426.5 L 701.5,430.0 L 705.0,433.5 L 708.5,437.0 L 712.0,440.5 L 715.0,444.5 L 718.5,448.0 L 721.5,452.0 L 724.5,456.0 L 727.5,460.0 L 730.5,464.0 L 732.5,469.0 L 735.5,473.0 L 737.5,478.0 L 739.5,483.0 L 741.5,488.0 L 743.5,493.0 L 745.5,498.0 L 746.5,504.0 L 748.0,509.5 L 748.5,516.0 L 749.5,522.0 L 749.5,529.0 L 749.5,536.0 L 748.5,542.0 L 747.5,548.0 L 745.5,553.0 L 744.0,558.5 L 742.0,563.5 L 740.0,568.5 L 737.5,573.0 L 735.0,577.5 L 732.5,582.0 L 729.5,586.0 L 726.5,590.0 L 723.0,593.5 L 720.0,597.5 L 716.5,601.0 L 712.5,604.0 L 708.5,607.0 L 704.5,610.0 L 700.0,612.5 L 696.0,615.5 L 691.0,617.5 L 686.0,619.5 L 681.0,621.5 L 675.5,623.0 L 670.0,624.5 L 664.0,625.5 L 658.0,626.5 L 651.0,626.5 Z" fill="#ffffff" stroke="none"/>
  <path d="M 509.0,357.5 L 508.0,357.5 L 507.0,357.5 L 506.5,357.0 L 506.0,356.5 L 505.5,356.0 L 505.0,355.5 L 504.0,355.5 L 503.5,355.0 L 503.0,354.5 L 502.5,354.0 L 502.0,353.5 L 501.5,353.0 L 501.0,352.5 L 500.5,352.0 L 500.0,351.5 L 499.5,351.0 L 499.0,350.5 L 498.5,350.0 L 498.0,349.5 L 497.5,349.0 L 497.0,348.5 L 496.5,348.0 L 496.0,347.5 L 495.5,347.0 L 495.0,346.5 L 494.5,346.0 L 494.5,345.0 L 494.0,344.5 L 493.5,344.0 L 493.0,343.5 L 492.5,343.0 L 492.5,342.0 L 492.0,341.5 L 491.5,341.0 L 491.0,340.5 L 490.5,340.0 L 490.5,339.0 L 490.0,338.5 L 489.5,338.0 L 489.0,337.5 L 488.5,337.0 L 488.5,336.0 L 488.0,335.5 L 487.5,335.0 L 487.5,334.0 L 487.0,333.5 L 486.5,333.0 L 486.5,332.0 L 486.0,331.5 L 485.5,331.0 L 485.5,330.0 L 485.0,329.5 L 484.5,329.0 L 484.5,328.0 L 484.0,327.5 L 483.5,327.0 L 483.5,326.0 L 483.0,325.5 L 482.5,325.0 L 482.5,324.0 L 482.0,323.5 L 481.5,323.0 L 481.5,322.0 L 481.0,321.5 L 480.5,321.0 L 480.5,320.0 L 480.0,319.5 L 479.5,319.0 L 479.5,318.0 L 479.5,317.0 L 479.0,316.5 L 478.5,316.0 L 478.5,315.0 L 478.0,314.5 L 477.5,314.0 L 477.5,313.0 L 477.5,312.0 L 477.0,311.5 L 476.5,311.0 L 476.5,310.0 L 476.0,309.5 L 475.5,309.0 L 475.5,308.0 L 475.5,307.0 L 475.0,306.5 L 474.5,306.0 L 474.5,305.0 L 474.5,304.0 L 474.0,303.5 L 473.5,303.0 L 473.5,302.0 L 473.5,301.0 L 473.0,300.5 L 472.5,300.0 L 472.5,299.0 L 472.5,298.0 L 472.0,297.5 L 471.5,297.0 L 471.5,296.0 L 471.5,295.0 L 471.5,294.0 L 471.0,293.5 L 470.5,293.0 L 470.5,292.0 L 470.5,291.0 L 470.0,290.5 L 469.5,290.0 L 469.5,289.0 L 469.5,288.0 L 469.5,287.0 L 469.5,286.0 L 469.0,285.5 L 468.5,285.0 L 468.5,284.0 L 468.5,283.0 L 468.5,282.0 L 468.0,281.5 L 467.5,281.0 L 467.5,280.0 L 467.5,279.0 L 467.5,278.0 L 467.5,277.0 L 467.0,276.5 L 466.5,276.0 L 466.5,275.0 L 466.5,274.0 L 466.5,273.0 L 466.5,272.0 L 466.5,271.0 L 466.5,270.0 L 466.0,269.5 L 465.5,269.0 L 465.5,268.0 L 465.5,267.0 L 465.5,266.0 L 465.5,265.0 L 465.5,264.0 L 465.5,263.0 L 465.5,262.0 L 465.5,261.0 L 465.5,260.0 L 465.5,259.0 L 465.5,258.0 L 465.5,257.0 L 465.5,256.0 L 465.5,255.0 L 465.5,254.0 L 465.5,253.0 L 465.5,252.0 L 465.5,251.0 L 465.5,250.0 L 465.5,249.0 L 465.5,248.0 L 466.0,247.5 L 466.5,247.0 L 466.5,246.0 L 466.5,245.0 L 466.5,244.0 L 466.5,243.0 L 466.5,242.0 L 466.5,241.0 L 467.0,240.5 L 467.5,240.0 L 467.5,239.0 L 467.5,238.0 L 467.5,237.0 L 467.5,236.0 L 468.0,235.5 L 468.5,235.0 L 468.5,234.0 L 468.5,233.0 L 468.5,232.0 L 469.0,231.5 L 469.5,231.0 L 469.5,230.0 L 469.5,229.0 L 470.0,228.5 L 470.5,228.0 L 470.5,227.0 L 470.5,226.0 L 471.0,225.5 L 471.5,225.0 L 471.5,224.0 L 471.5,223.0 L 472.0,222.5 L 472.5,222.0 L 472.5,221.0 L 473.0,220.5 L 473.5,220.0 L 474.0,219.5 L 474.5,219.0 L 474.5,218.0 L 475.0,217.5 L 475.5,217.0 L 476.0,216.5 L 476.5,216.0 L 477.0,215.5 L 477.5,215.0 L 478.0,214.5 L 478.5,214.0 L 479.0,213.5 L 479.5,213.0 L 480.0,212.5 L 480.5,212.0 L 481.0,211.5 L 481.5,211.0 L 482.0,210.5 L 482.5,210.0 L 483.0,209.5 L 483.5,209.0 L 484.0,208.5 L 484.5,208.0 L 485.0,207.5 L 486.0,207.5 L 486.5,207.0 L 487.0,206.5 L 487.5,206.0 L 488.0,205.5 L 488.5,205.0 L 489.0,204.5 L 490.0,204.5 L 490.5,204.0 L 491.0,203.5 L 491.5,203.0 L 492.0,202.5 L 493.0,202.5 L 494.0,202.5 L 494.5,202.0 L 495.0,201.5 L 496.0,201.5 L 496.5,201.0 L 497.0,200.5 L 498.0,200.5 L 499.0,200.5 L 499.5,200.0 L 500.0,199.5 L 501.0,199.5 L 502.0,199.5 L 503.0,199.5 L 503.5,199.0 L 504.0,198.5 L 505.0,198.5 L 506.0,198.5 L 506.5,198.0 L 507.0,197.5 L 508.0,197.5 L 509.0,197.5 L 510.0,197.5 L 511.0,197.5 L 511.5,197.0 L 512.0,196.5 L 513.0,196.5 L 514.0,196.5 L 515.0,196.5 L 516.0,196.5 L 517.0,196.5 L 517.5,196.0 L 518.0,195.5 L 519.0,195.5 L 520.0,195.5 L 521.0,195.5 L 522.0,195.5 L 523.0,195.5 L 524.0,195.5 L 525.0,195.5 L 526.0,195.5 L 527.0,195.5 L 527.5,195.0 L 528.0,194.5 L 529.0,194.5 L 530.0,194.5 L 531.0,194.5 L 532.0,194.5 L 533.0,194.5 L 534.0,194.5 L 535.0,194.5 L 536.0,194.5 L 537.0,194.5 L 538.0,194.5 L 539.0,194.5 L 539.5,195.0 L 540.0,195.5 L 541.0,195.5 L 542.0,195.5 L 543.0,195.5 L 544.0,195.5 L 545.0,195.5 L 546.0,195.5 L 547.0,195.5 L 548.0,195.5 L 549.0,195.5 L 549.5,196.0 L 550.0,196.5 L 551.0,196.5 L 552.0,196.5 L 553.0,196.5 L 554.0,196.5 L 555.0,196.5 L 555.5,197.0 L 556.0,197.5 L 557.0,197.5 L 558.0,197.5 L 559.0,197.5 L 560.0,197.5 L 560.5,198.0 L 561.0,198.5 L 562.0,198.5 L 563.0,198.5 L 564.0,198.5 L 565.0,198.5 L 566.0,198.5 L 567.0,198.5 L 567.5,199.0 L 568.0,199.5 L 569.0,199.5 L 570.0,199.5 L 571.0,199.5 L 572.0,199.5 L 573.0,199.5 L 573.5,200.0 L 574.0,200.5 L 575.0,200.5 L 576.0,200.5 L 577.0,200.5 L 577.5,201.0 L 578.0,201.5 L 579.0,201.5 L 580.0,201.5 L 581.0,201.5 L 581.5,202.0 L 582.0,202.5 L 583.0,202.5 L 584.0,202.5 L 585.0,202.5 L 585.5,203.0 L 586.0,203.5 L 587.0,203.5 L 588.0,203.5 L 588.5,204.0 L 589.0,204.5 L 590.0,204.5 L 590.5,205.0 L 591.0,205.5 L 592.0,205.5 L 593.0,205.5 L 593.5,206.0 L 594.0,206.5 L 595.0,206.5 L 595.5,207.0 L 596.0,207.5 L 597.0,207.5 L 597.5,208.0 L 598.0,208.5 L 599.0,208.5 L 599.5,209.0 L 600.0,209.5 L 601.0,209.5 L 601.5,210.0 L 602.0,210.5 L 603.0,210.5 L 603.5,211.0 L 604.0,211.5 L 604.5,212.0 L 605.0,212.5 L 606.0,212.5 L 606.5,213.0 L 607.0,213.5 L 608.0,213.5 L 608.5,214.0 L 609.0,214.5 L 609.5,215.0 L 610.0,215.5 L 611.0,215.5 L 611.5,216.0 L 612.0,216.5 L 613.0,216.5 L 613.5,217.0 L 614.0,217.5 L 614.5,218.0 L 615.0,218.5 L 616.0,218.5 L 616.5,219.0 L 617.0,219.5 L 617.5,220.0 L 618.0,220.5 L 619.0,220.5 L 619.5,221.0 L 620.0,221.5 L 620.5,222.0 L 621.0,222.5 L 621.5,223.0 L 622.0,223.5 L 623.0,223.5 L 623.5,224.0 L 624.0,224.5 L 624.5,225.0 L 625.0,225.5 L 625.5,226.0 L 626.0,226.5 L 626.5,227.0 L 627.0,227.5 L 627.5,228.0 L 628.0,228.5 L 629.0,228.5 L 629.5,229.0 L 630.0,229.5 L 630.5,230.0 L 631.0,230.5 L 631.5,231.0 L 632.0,231.5 L 632.5,232.0 L 633.0,232.5 L 633.5,233.0 L 633.5,234.0 L 634.0,234.5 L 634.5,235.0 L 635.0,235.5 L 635.5,236.0 L 636.0,236.5 L 636.5,237.0 L 637.0,237.5 L 637.5,238.0 L 637.5,239.0 L 638.0,239.5 L 638.5,240.0 L 638.5,241.0 L 639.0,241.5 L 639.5,242.0 L 639.5,243.0 L 639.0,243.5 L 638.5,243.0 L 638.0,242.5 L 637.0,242.5 L 636.5,242.0 L 636.0,241.5 L 635.0,241.5 L 634.5,241.0 L 634.0,240.5 L 633.0,240.5 L 632.5,240.0 L 632.0,239.5 L 631.0,239.5 L 630.5,239.0 L 630.0,238.5 L 629.0,238.5 L 628.5,238.0 L 628.0,237.5 L 627.0,237.5 L 626.5,237.0 L 626.0,236.5 L 625.5,236.0 L 625.0,235.5 L 624.0,235.5 L 623.5,235.0 L 623.0,234.5 L 622.0,234.5 L 621.5,234.0 L 621.0,233.5 L 620.0,233.5 L 619.5,233.0 L 619.0,232.5 L 618.0,232.5 L 617.5,232.0 L 617.0,231.5 L 616.0,231.5 L 615.5,231.0 L 615.0,230.5 L 614.0,230.5 L 613.5,230.0 L 613.0,229.5 L 612.0,229.5 L 611.5,229.0 L 611.0,228.5 L 610.5,228.0 L 610.0,227.5 L 609.0,227.5 L 608.0,227.5 L 607.5,227.0 L 607.0,226.5 L 606.0,226.5 L 605.5,226.0 L 605.0,225.5 L 604.0,225.5 L 603.5,225.0 L 603.0,224.5 L 602.0,224.5 L 601.5,224.0 L 601.0,223.5 L 600.0,223.5 L 599.5,223.0 L 599.0,222.5 L 598.0,222.5 L 597.0,222.5 L 596.5,222.0 L 596.0,221.5 L 595.0,221.5 L 594.5,221.0 L 594.0,220.5 L 593.0,220.5 L 592.0,220.5 L 591.5,220.0 L 591.0,219.5 L 590.0,219.5 L 589.0,219.5 L 588.5,219.0 L 588.0,218.5 L 587.0,218.5 L 586.5,218.0 L 586.0,217.5 L 585.0,217.5 L 584.0,217.5 L 583.5,217.0 L 583.0,216.5 L 582.0,216.5 L 581.0,216.5 L 580.0,216.5 L 579.5,216.0 L 579.0,215.5 L 578.0,215.5 L 577.0,215.5 L 576.0,215.5 L 575.5,215.0 L 575.0,214.5 L 574.0,214.5 L 573.0,214.5 L 572.0,214.5 L 571.5,214.0 L 571.0,213.5 L 570.0,213.5 L 569.0,213.5 L 568.0,213.5 L 567.0,213.5 L 566.0,213.5 L 565.5,213.0 L 565.0,212.5 L 564.0,212.5 L 563.0,212.5 L 562.0,212.5 L 561.0,212.5 L 560.0,212.5 L 559.0,212.5 L 558.0,212.5 L 557.5,212.0 L 557.0,211.5 L 556.0,211.5 L 555.0,211.5 L 554.0,211.5 L 553.0,211.5 L 552.0,211.5 L 551.0,211.5 L 550.0,211.5 L 549.0,211.5 L 548.0,211.5 L 547.0,211.5 L 546.0,211.5 L 545.5,212.0 L 545.0,212.5 L 544.0,212.5 L 543.0,212.5 L 542.0,212.5 L 541.0,212.5 L 540.0,212.5 L 539.0,212.5 L 538.0,212.5 L 537.5,213.0 L 537.0,213.5 L 536.0,213.5 L 535.0,213.5 L 534.0,213.5 L 533.0,213.5 L 532.5,214.0 L 532.0,214.5 L 531.0,214.5 L 530.0,214.5 L 529.5,215.0 L 529.0,215.5 L 528.0,215.5 L 527.0,215.5 L 526.5,216.0 L 526.0,216.5 L 525.0,216.5 L 524.0,216.5 L 523.5,217.0 L 523.0,217.5 L 522.0,217.5 L 521.5,218.0 L 521.0,218.5 L 520.0,218.5 L 519.5,219.0 L 519.0,219.5 L 518.0,219.5 L 517.5,220.0 L 517.0,220.5 L 516.0,220.5 L 515.5,221.0 L 515.0,221.5 L 514.0,221.5 L 513.5,222.0 L 513.0,222.5 L 512.0,222.5 L 511.5,223.0 L 511.0,223.5 L 510.5,224.0 L 510.0,224.5 L 509.5,225.0 L 509.0,225.5 L 508.5,226.0 L 508.0,226.5 L 507.0,226.5 L 506.5,227.0 L 506.0,227.5 L 505.5,228.0 L 505.0,228.5 L 504.5,229.0 L 504.0,229.5 L 503.5,230.0 L 503.5,231.0 L 503.0,231.5 L 502.5,232.0 L 502.0,232.5 L 501.5,233.0 L 501.0,233.5 L 500.5,234.0 L 500.0,234.5 L 499.5,235.0 L 499.0,235.5 L 498.5,236.0 L 498.5,237.0 L 498.0,237.5 L 497.5,238.0 L 497.0,238.5 L 496.5,239.0 L 496.5,240.0 L 496.0,240.5 L 495.5,241.0 L 495.0,241.5 L 494.5,242.0 L 494.5,243.0 L 494.0,243.5 L 493.5,244.0 L 493.5,245.0 L 493.0,245.5 L 492.5,246.0 L 492.5,247.0 L 492.0,247.5 L 491.5,248.0 L 491.5,249.0 L 491.0,249.5 L 490.5,250.0 L 490.5,251.0 L 490.0,251.5 L 489.5,252.0 L 489.5,253.0 L 489.5,254.0 L 489.0,254.5 L 488.5,255.0 L 488.5,256.0 L 488.5,257.0 L 488.0,257.5 L 487.5,258.0 L 487.5,259.0 L 487.5,260.0 L 487.5,261.0 L 487.0,261.5 L 486.5,262.0 L 486.5,263.0 L 486.5,264.0 L 486.5,265.0 L 486.5,266.0 L 486.5,267.0 L 486.0,267.5 L 485.5,268.0 L 485.5,269.0 L 485.5,270.0 L 485.5,271.0 L 485.5,272.0 L 485.5,273.0 L 485.5,274.0 L 485.5,275.0 L 485.5,276.0 L 485.5,277.0 L 485.5,278.0 L 485.5,279.0 L 485.5,280.0 L 485.5,281.0 L 485.5,282.0 L 485.5,283.0 L 485.5,284.0 L 485.5,285.0 L 485.5,286.0 L 485.5,287.0 L 485.5,288.0 L 485.5,289.0 L 485.5,290.0 L 486.0,290.5 L 486.5,291.0 L 486.5,292.0 L 486.5,293.0 L 486.5,294.0 L 486.5,295.0 L 486.5,296.0 L 487.0,296.5 L 487.5,297.0 L 487.5,298.0 L 487.5,299.0 L 487.5,300.0 L 487.5,301.0 L 488.0,301.5 L 488.5,302.0 L 488.5,303.0 L 488.5,304.0 L 488.5,305.0 L 488.5,306.0 L 489.0,306.5 L 489.5,307.0 L 489.5,308.0 L 489.5,309.0 L 490.0,309.5 L 490.5,310.0 L 490.5,311.0 L 490.5,312.0 L 490.5,313.0 L 491.0,313.5 L 491.5,314.0 L 491.5,315.0 L 491.5,316.0 L 492.0,316.5 L 492.5,317.0 L 492.5,318.0 L 492.5,319.0 L 493.0,319.5 L 493.5,320.0 L 493.5,321.0 L 493.5,322.0 L 494.0,322.5 L 494.5,323.0 L 494.5,324.0 L 494.5,325.0 L 495.0,325.5 L 495.5,326.0 L 495.5,327.0 L 496.0,327.5 L 496.5,328.0 L 496.5,329.0 L 496.5,330.0 L 497.0,330.5 L 497.5,331.0 L 497.5,332.0 L 498.0,332.5 L 498.5,333.0 L 498.5,334.0 L 499.0,334.5 L 499.5,335.0 L 499.5,336.0 L 499.5,337.0 L 500.0,337.5 L 500.5,338.0 L 500.5,339.0 L 501.0,339.5 L 501.5,340.0 L 501.5,341.0 L 502.0,341.5 L 502.5,342.0 L 502.5,343.0 L 503.0,343.5 L 503.5,344.0 L 503.5,345.0 L 504.0,345.5 L 504.5,346.0 L 504.5,347.0 L 505.0,347.5 L 505.5,348.0 L 505.5,349.0 L 506.0,349.5 L 506.5,350.0 L 506.5,351.0 L 507.0,351.5 L 507.5,352.0 L 507.5,353.0 L 508.0,353.5 L 508.5,354.0 L 508.5,355.0 L 508.5,356.0 L 509.0,356.5 L 509.5,357.0 L 509.0,357.5 Z" fill="#ffffff" stroke="none"/>
  <path d="M 734.5,237.0 L 734.5,236.0 L 734.5,235.0 L 734.5,234.0 L 734.0,233.5 L 733.5,233.0 L 733.5,232.0 L 733.0,231.5 L 732.5,231.0 L 732.5,230.0 L 732.0,229.5 L 731.5,229.0 L 731.5,228.0 L 731.0,227.5 L 730.5,227.0 L 730.0,226.5 L 729.5,226.0 L 729.0,225.5 L 728.5,225.0 L 728.0,224.5 L 727.0,224.5 L 726.5,224.0 L 726.0,223.5 L 725.5,223.0 L 725.0,222.5 L 724.5,222.0 L 724.0,221.5 L 723.0,221.5 L 722.5,221.0 L 722.0,220.5 L 721.5,220.0 L 721.0,219.5 L 720.0,219.5 L 719.5,219.0 L 719.0,218.5 L 718.5,218.0 L 718.0,217.5 L 717.5,217.0 L 717.0,216.5 L 716.0,216.5 L 715.5,216.0 L 715.0,215.5 L 714.5,215.0 L 714.0,214.5 L 713.0,214.5 L 712.5,214.0 L 712.0,213.5 L 711.5,213.0 L 711.0,212.5 L 710.0,212.5 L 709.5,212.0 L 709.0,211.5 L 708.5,211.0 L 708.0,210.5 L 707.0,210.5 L 706.5,210.0 L 706.0,209.5 L 705.5,209.0 L 705.0,208.5 L 704.5,209.0 L 704.5,210.0 L 704.5,211.0 L 705.0,211.5 L 705.5,212.0 L 705.5,213.0 L 705.5,214.0 L 705.5,215.0 L 706.0,215.5 L 706.5,216.0 L 706.5,217.0 L 707.0,217.5 L 707.5,218.0 L 708.0,218.5 L 708.5,219.0 L 709.0,219.5 L 709.5,220.0 L 710.0,220.5 L 711.0,220.5 L 711.5,221.0 L 712.0,221.5 L 713.0,221.5 L 713.5,222.0 L 714.0,222.5 L 715.0,222.5 L 715.5,223.0 L 716.0,223.5 L 717.0,223.5 L 717.5,224.0 L 718.0,224.5 L 719.0,224.5 L 719.5,225.0 L 720.0,225.5 L 720.5,226.0 L 721.0,226.5 L 722.0,226.5 L 722.5,227.0 L 723.0,227.5 L 723.5,228.0 L 724.0,228.5 L 724.5,229.0 L 725.0,229.5 L 725.5,230.0 L 726.0,230.5 L 726.5,231.0 L 727.0,231.5 L 727.5,232.0 L 728.0,232.5 L 728.5,233.0 L 729.0,233.5 L 730.0,233.5 L 730.5,234.0 L 731.0,234.5 L 731.5,235.0 L 732.0,235.5 L 732.5,236.0 L 733.0,236.5 L 733.5,237.0 L 734.0,237.5 L 734.5,237.0 Z" fill="#ffffff" stroke="none"/>
  <path d="M 968.0,602.5 L 963.0,602.5 L 958.0,602.5 L 953.0,602.5 L 948.0,602.5 L 944.0,601.5 L 939.0,601.5 L 935.0,600.5 L 930.0,600.5 L 926.0,599.5 L 921.0,599.5 L 916.0,599.5 L 912.0,598.5 L 907.0,598.5 L 902.5,598.0 L 898.0,597.5 L 893.0,597.5 L 889.0,596.5 L 884.0,596.5 L 880.0,595.5 L 875.0,595.5 L 871.0,594.5 L 866.5,594.0 L 862.0,593.5 L 858.0,592.5 L 854.5,591.0 L 855.0,588.5 L 860.0,588.5 L 864.0,587.5 L 869.0,587.5 L 874.0,587.5 L 879.0,587.5 L 883.0,586.5 L 888.0,586.5 L 892.0,585.5 L 896.0,584.5 L 900.0,583.5 L 904.0,582.5 L 908.0,581.5 L 911.5,580.0 L 915.0,578.5 L 919.0,577.5 L 922.0,575.5 L 925.0,573.5 L 928.0,571.5 L 930.5,569.0 L 933.0,566.5 L 935.0,563.5 L 936.5,560.0 L 937.5,556.0 L 934.5,554.0 L 931.5,552.0 L 928.5,550.0 L 925.5,548.0 L 922.5,546.0 L 919.5,544.0 L 916.5,542.0 L 913.0,540.5 L 910.0,538.5 L 907.0,536.5 L 904.0,534.5 L 901.0,532.5 L 898.0,530.5 L 895.0,528.5 L 892.0,526.5 L 889.0,524.5 L 886.0,522.5 L 883.5,520.0 L 880.5,518.0 L 877.5,516.0 L 875.0,513.5 L 872.0,511.5 L 869.5,509.0 L 867.0,506.5 L 864.5,504.0 L 862.0,501.5 L 860.0,498.5 L 857.5,496.0 L 855.0,493.5 L 852.5,491.0 L 850.0,488.5 L 848.0,485.5 L 845.5,483.0 L 843.5,480.0 L 841.0,477.5 L 839.0,474.5 L 837.0,471.5 L 835.0,468.5 L 833.0,465.5 L 831.5,462.0 L 829.5,459.0 L 827.5,456.0 L 826.0,452.5 L 824.5,449.0 L 823.0,445.5 L 821.5,442.0 L 820.0,438.5 L 818.5,435.0 L 817.5,431.0 L 816.0,427.5 L 814.5,424.0 L 813.5,420.0 L 812.5,416.0 L 811.0,412.5 L 810.0,408.5 L 808.5,405.0 L 807.5,401.0 L 806.5,397.0 L 805.5,393.0 L 804.5,389.0 L 803.5,385.0 L 802.5,381.0 L 801.0,377.5 L 799.5,374.0 L 798.5,370.0 L 797.5,366.0 L 796.0,362.5 L 794.5,359.0 L 793.5,355.0 L 791.5,352.0 L 790.5,348.0 L 788.5,345.0 L 787.0,341.5 L 785.5,338.0 L 783.5,335.0 L 780.5,333.0 L 777.0,331.5 L 773.0,330.5 L 769.0,329.5 L 765.0,328.5 L 761.5,327.0 L 758.0,325.5 L 755.0,323.5 L 751.5,322.0 L 749.0,319.5 L 746.0,317.5 L 743.5,315.0 L 741.0,312.5 L 738.5,310.0 L 736.5,307.0 L 734.5,304.0 L 734.0,300.5 L 738.0,301.5 L 742.0,302.5 L 745.0,304.5 L 749.0,305.5 L 752.0,307.5 L 756.0,308.5 L 759.5,310.0 L 763.0,311.5 L 767.0,312.5 L 771.0,313.5 L 775.5,314.0 L 780.0,314.5 L 785.0,314.5 L 789.0,315.5 L 794.0,315.5 L 798.0,316.5 L 801.5,318.0 L 804.5,320.0 L 807.0,322.5 L 809.0,325.5 L 811.5,328.0 L 813.0,331.5 L 815.0,334.5 L 816.5,338.0 L 818.0,341.5 L 819.5,345.0 L 821.0,348.5 L 822.5,352.0 L 824.5,355.0 L 826.0,358.5 L 827.5,362.0 L 829.5,365.0 L 831.5,368.0 L 833.5,371.0 L 835.5,374.0 L 837.5,377.0 L 840.0,379.5 L 842.5,382.0 L 845.0,384.5 L 848.0,386.5 L 851.0,388.5 L 854.0,390.5 L 858.0,391.5 L 862.0,392.5 L 865.5,393.0 L 868.0,390.5 L 870.5,388.0 L 871.5,384.0 L 872.5,380.0 L 871.5,376.0 L 870.5,372.0 L 870.0,367.5 L 869.5,363.0 L 868.5,359.0 L 868.5,354.0 L 867.5,350.0 L 867.5,345.0 L 867.5,340.0 L 866.5,336.0 L 866.5,331.0 L 866.5,326.0 L 866.5,321.0 L 866.5,316.0 L 866.5,311.0 L 866.5,306.0 L 866.5,301.0 L 866.5,296.0 L 867.5,292.0 L 867.5,287.0 L 867.5,282.0 L 867.5,277.0 L 868.0,272.5 L 868.5,268.0 L 869.5,264.0 L 870.5,260.0 L 871.0,255.5 L 872.0,251.5 L 873.0,247.5 L 874.0,243.5 L 875.5,240.0 L 876.5,236.0 L 877.5,232.0 L 879.0,228.5 L 880.5,225.0 L 882.0,221.5 L 883.5,218.0 L 885.0,214.5 L 886.5,211.0 L 888.5,208.0 L 890.5,205.0 L 892.5,202.0 L 894.5,199.0 L 896.5,196.0 L 899.0,193.5 L 901.5,191.0 L 904.0,188.5 L 907.0,186.5 L 909.5,187.0 L 909.5,192.0 L 908.5,196.0 L 908.5,201.0 L 908.5,206.0 L 907.5,210.0 L 907.5,215.0 L 906.5,219.0 L 906.5,224.0 L 906.5,229.0 L 906.5,234.0 L 906.5,239.0 L 907.5,243.0 L 908.5,247.0 L 909.5,251.0 L 910.5,255.0 L 912.0,258.5 L 914.0,261.5 L 916.5,264.0 L 919.0,266.5 L 922.5,265.0 L 924.5,262.0 L 926.5,259.0 L 928.0,255.5 L 930.0,252.5 L 932.0,249.5 L 934.0,246.5 L 936.0,243.5 L 938.0,240.5 L 940.0,237.5 L 942.0,234.5 L 944.0,231.5 L 946.0,228.5 L 948.0,225.5 L 950.0,222.5 L 952.0,219.5 L 954.0,216.5 L 956.5,214.0 L 958.5,211.0 L 961.0,208.5 L 963.0,205.5 L 965.5,203.0 L 968.0,200.5 L 970.0,197.5 L 972.5,195.0 L 975.0,192.5 L 977.5,190.0 L 980.0,187.5 L 982.5,185.0 L 985.0,182.5 L 987.5,180.0 L 990.0,177.5 L 992.5,175.0 L 995.0,172.5 L 997.5,170.0 L 1000.5,168.0 L 1003.0,165.5 L 1006.0,163.5 L 1008.5,161.0 L 1011.5,159.0 L 1014.5,157.0 L 1017.5,155.0 L 1020.0,152.5 L 1023.0,150.5 L 1026.0,148.5 L 1029.0,146.5 L 1032.0,144.5 L 1035.5,143.0 L 1038.5,141.0 L 1041.5,139.0 L 1045.0,137.5 L 1048.0,135.5 L 1051.0,133.5 L 1054.0,131.5 L 1057.5,130.0 L 1061.0,128.5 L 1064.0,126.5 L 1067.5,125.0 L 1071.0,123.5 L 1074.5,122.0 L 1078.0,120.5 L 1081.5,119.0 L 1085.0,117.5 L 1089.0,116.5 L 1093.0,115.5 L 1097.0,114.5 L 1101.0,113.5 L 1103.0,115.5 L 1101.0,118.5 L 1098.0,120.5 L 1095.5,123.0 L 1092.5,125.0 L 1090.0,127.5 L 1087.0,129.5 L 1084.0,131.5 L 1081.5,134.0 L 1079.0,136.5 L 1076.0,138.5 L 1073.5,141.0 L 1071.0,143.5 L 1068.5,146.0 L 1066.0,148.5 L 1063.5,151.0 L 1060.5,153.0 L 1058.0,155.5 L 1055.5,158.0 L 1053.0,160.5 L 1050.5,163.0 L 1048.0,165.5 L 1045.5,168.0 L 1042.5,170.0 L 1040.0,172.5 L 1037.5,175.0 L 1035.0,177.5 L 1032.5,180.0 L 1030.0,182.5 L 1027.0,184.5 L 1024.5,187.0 L 1022.5,190.0 L 1020.0,192.5 L 1018.0,195.5 L 1016.0,198.5 L 1013.5,201.0 L 1011.5,204.0 L 1009.5,207.0 L 1007.5,210.0 L 1005.5,213.0 L 1003.5,216.0 L 1001.5,219.0 L 999.5,222.0 L 997.5,225.0 L 995.5,228.0 L 993.5,231.0 L 991.5,234.0 L 990.0,237.5 L 988.0,240.5 L 986.5,244.0 L 984.5,247.0 L 983.0,250.5 L 981.5,254.0 L 979.5,257.0 L 978.0,260.5 L 976.5,264.0 L 974.5,267.0 L 973.5,271.0 L 971.5,274.0 L 970.5,278.0 L 969.0,281.5 L 967.5,285.0 L 966.5,289.0 L 965.0,292.5 L 963.5,296.0 L 962.5,300.0 L 961.5,304.0 L 960.5,308.0 L 959.5,312.0 L 958.5,316.0 L 957.5,320.0 L 956.5,324.0 L 955.5,328.0 L 954.5,332.0 L 954.5,337.0 L 953.5,341.0 L 953.5,346.0 L 952.5,350.0 L 952.5,355.0 L 952.5,360.0 L 952.5,365.0 L 952.5,370.0 L 952.5,375.0 L 953.0,379.5 L 953.5,384.0 L 953.5,389.0 L 953.5,394.0 L 953.5,399.0 L 954.5,403.0 L 958.0,404.5 L 961.5,403.0 L 965.0,401.5 L 968.5,400.0 L 972.0,398.5 L 975.5,397.0 L 979.0,395.5 L 982.0,393.5 L 986.0,392.5 L 989.0,390.5 L 992.5,389.0 L 995.5,387.0 L 999.0,385.5 L 1002.0,383.5 L 1005.0,381.5 L 1008.0,379.5 L 1011.0,377.5 L 1014.5,376.0 L 1017.0,373.5 L 1020.0,371.5 L 1023.0,369.5 L 1026.0,367.5 L 1028.5,365.0 L 1031.5,363.0 L 1034.0,360.5 L 1036.5,358.0 L 1039.0,355.5 L 1041.5,353.0 L 1043.5,350.0 L 1046.0,347.5 L 1048.0,344.5 L 1050.0,341.5 L 1051.5,338.0 L 1053.5,335.0 L 1055.0,331.5 L 1056.5,328.0 L 1058.5,325.0 L 1060.0,321.5 L 1061.5,318.0 L 1063.5,315.0 L 1065.0,311.5 L 1067.5,309.0 L 1071.0,307.5 L 1074.5,306.0 L 1079.0,305.5 L 1084.0,305.5 L 1089.0,305.5 L 1094.0,305.5 L 1098.0,306.5 L 1102.0,307.5 L 1106.5,308.0 L 1110.5,309.0 L 1114.0,310.5 L 1118.0,311.5 L 1121.5,313.0 L 1125.0,314.5 L 1128.0,316.5 L 1131.0,318.5 L 1134.0,320.5 L 1137.0,322.5 L 1139.5,325.0 L 1142.0,327.5 L 1144.5,330.0 L 1140.0,330.5 L 1135.0,330.5 L 1130.0,330.5 L 1125.0,330.5 L 1120.0,330.5 L 1115.0,330.5 L 1111.0,331.5 L 1106.5,332.0 L 1102.5,333.0 L 1099.0,334.5 L 1096.0,336.5 L 1093.0,338.5 L 1090.0,340.5 L 1087.0,342.5 L 1084.0,344.5 L 1081.0,346.5 L 1078.0,348.5 L 1075.5,351.0 L 1072.5,353.0 L 1070.0,355.5 L 1067.5,358.0 L 1065.0,360.5 L 1062.5,363.0 L 1060.0,365.5 L 1057.5,368.0 L 1055.0,370.5 L 1052.5,373.0 L 1050.0,375.5 L 1048.0,378.5 L 1045.5,381.0 L 1043.5,384.0 L 1041.0,386.5 L 1038.5,389.0 L 1036.0,391.5 L 1034.0,394.5 L 1031.5,397.0 L 1029.5,400.0 L 1027.5,403.0 L 1025.0,405.5 L 1023.0,408.5 L 1021.0,411.5 L 1018.5,414.0 L 1016.5,417.0 L 1014.5,420.0 L 1012.0,422.5 L 1010.0,425.5 L 1008.0,428.5 L 1005.5,431.0 L 1003.5,434.0 L 1001.5,437.0 L 999.0,439.5 L 997.0,442.5 L 994.5,445.0 L 992.5,448.0 L 990.5,451.0 L 988.5,454.0 L 986.0,456.5 L 984.0,459.5 L 981.5,462.0 L 979.5,465.0 L 977.5,468.0 L 978.0,470.5 L 980.0,473.5 L 982.5,476.0 L 985.5,478.0 L 988.0,480.5 L 991.0,482.5 L 994.0,484.5 L 997.0,486.5 L 1000.0,488.5 L 1003.5,490.0 L 1007.0,491.5 L 1010.0,493.5 L 1014.0,494.5 L 1017.0,496.5 L 1021.0,497.5 L 1024.5,499.0 L 1028.5,500.0 L 1032.5,501.0 L 1036.5,502.0 L 1041.0,502.5 L 1045.0,503.5 L 1050.0,503.5 L 1055.0,503.5 L 1060.0,503.5 L 1065.0,503.5 L 1070.0,503.5 L 1075.0,503.5 L 1079.0,502.5 L 1084.0,502.5 L 1088.0,501.5 L 1092.5,501.0 L 1097.0,500.5 L 1101.0,499.5 L 1105.0,498.5 L 1108.5,497.0 L 1112.0,495.5 L 1116.0,494.5 L 1119.5,493.0 L 1123.0,491.5 L 1126.5,490.0 L 1130.0,488.5 L 1133.0,486.5 L 1136.5,485.0 L 1140.0,483.5 L 1143.0,481.5 L 1146.5,480.0 L 1149.5,478.0 L 1153.0,476.5 L 1156.0,474.5 L 1159.0,472.5 L 1162.5,471.0 L 1165.5,469.0 L 1168.5,467.0 L 1171.5,465.0 L 1174.5,463.0 L 1177.5,461.0 L 1180.0,458.5 L 1183.0,456.5 L 1186.0,454.5 L 1188.5,452.0 L 1191.0,449.5 L 1194.0,447.5 L 1196.5,445.0 L 1199.0,442.5 L 1202.0,440.5 L 1205.0,438.5 L 1207.5,436.0 L 1210.5,434.0 L 1213.0,431.5 L 1216.0,429.5 L 1218.5,427.0 L 1221.0,424.5 L 1222.5,421.0 L 1227.0,420.5 L 1227.5,423.0 L 1227.0,427.5 L 1226.0,431.5 L 1224.5,435.0 L 1223.5,439.0 L 1222.5,443.0 L 1221.0,446.5 L 1219.5,450.0 L 1218.5,454.0 L 1217.0,457.5 L 1215.5,461.0 L 1214.0,464.5 L 1212.5,468.0 L 1210.5,471.0 L 1209.0,474.5 L 1207.5,478.0 L 1205.5,481.0 L 1204.0,484.5 L 1202.0,487.5 L 1200.0,490.5 L 1198.5,494.0 L 1196.5,497.0 L 1194.5,500.0 L 1192.5,503.0 L 1190.0,505.5 L 1188.0,508.5 L 1186.0,511.5 L 1183.5,514.0 L 1181.5,517.0 L 1179.0,519.5 L 1176.5,522.0 L 1174.5,525.0 L 1172.0,527.5 L 1169.5,530.0 L 1167.0,532.5 L 1164.5,535.0 L 1161.5,537.0 L 1159.0,539.5 L 1156.0,541.5 L 1153.5,544.0 L 1151.0,546.5 L 1148.0,548.5 L 1145.0,550.5 L 1142.0,552.5 L 1139.0,554.5 L 1136.0,556.5 L 1133.0,558.5 L 1130.0,560.5 L 1127.0,562.5 L 1124.0,564.5 L 1120.5,566.0 L 1117.0,567.5 L 1114.0,569.5 L 1110.5,571.0 L 1107.0,572.5 L 1104.0,574.5 L 1100.0,575.5 L 1097.0,577.5 L 1093.0,578.5 L 1089.5,580.0 L 1086.0,581.5 L 1082.0,582.5 L 1078.5,584.0 L 1075.0,585.5 L 1071.0,586.5 L 1067.0,587.5 L 1063.0,588.5 L 1059.5,590.0 L 1055.5,591.0 L 1051.5,592.0 L 1047.0,592.5 L 1043.0,593.5 L 1039.0,594.5 L 1035.0,595.5 L 1031.0,596.5 L 1026.0,596.5 L 1022.0,597.5 L 1018.0,598.5 L 1013.0,598.5 L 1009.0,599.5 L 1004.0,599.5 L 1000.0,600.5 L 995.0,600.5 L 990.0,600.5 L 985.0,600.5 L 980.5,601.0 L 976.0,601.5 L 971.0,601.5 Z" fill="#cc1111" stroke="none"/>
  <!-- Dragon eye - traced from original -->
  <path d="M 734.0,236.5 L 733.0,236.5 L 732.5,236.0 L 732.0,235.5 L 731.5,235.0 L 731.0,234.5 L 730.5,234.0 L 730.0,233.5 L 729.5,233.0 L 729.0,232.5 L 728.0,232.5 L 727.5,232.0 L 727.0,231.5 L 726.5,231.0 L 726.0,230.5 L 725.5,230.0 L 725.0,229.5 L 724.5,229.0 L 724.0,228.5 L 723.5,228.0 L 723.0,227.5 L 722.5,227.0 L 722.0,226.5 L 721.0,226.5 L 720.5,226.0 L 720.0,225.5 L 719.5,225.0 L 719.0,224.5 L 718.0,224.5 L 717.5,224.0 L 717.0,223.5 L 716.0,223.5 L 715.5,223.0 L 715.0,222.5 L 714.0,222.5 L 713.5,222.0 L 713.0,221.5 L 712.0,221.5 L 711.5,221.0 L 711.0,220.5 L 710.5,220.0 L 710.0,219.5 L 709.0,219.5 L 708.5,219.0 L 708.0,218.5 L 707.5,218.0 L 707.5,217.0 L 707.0,216.5 L 706.5,216.0 L 706.5,215.0 L 706.0,214.5 L 705.5,214.0 L 705.5,213.0 L 705.5,212.0 L 705.5,211.0 L 705.0,210.5 L 704.5,210.0 L 704.5,209.0 L 705.0,208.5 L 705.5,209.0 L 706.0,209.5 L 706.5,210.0 L 707.0,210.5 L 708.0,210.5 L 708.5,211.0 L 709.0,211.5 L 709.5,212.0 L 710.0,212.5 L 711.0,212.5 L 711.5,213.0 L 712.0,213.5 L 712.5,214.0 L 713.0,214.5 L 714.0,214.5 L 714.5,215.0 L 715.0,215.5 L 715.5,216.0 L 716.0,216.5 L 716.5,217.0 L 717.0,217.5 L 718.0,217.5 L 718.5,218.0 L 719.0,218.5 L 719.5,219.0 L 720.0,219.5 L 721.0,219.5 L 721.5,220.0 L 722.0,220.5 L 722.5,221.0 L 723.0,221.5 L 724.0,221.5 L 724.5,222.0 L 725.0,222.5 L 725.5,223.0 L 726.0,223.5 L 726.5,224.0 L 727.0,224.5 L 728.0,224.5 L 728.5,225.0 L 729.0,225.5 L 729.5,226.0 L 730.0,226.5 L 730.5,227.0 L 730.5,228.0 L 731.0,228.5 L 731.5,229.0 L 732.0,229.5 L 732.5,230.0 L 732.5,231.0 L 733.0,231.5 L 733.5,232.0 L 733.5,233.0 L 733.5,234.0 L 734.0,234.5 L 734.5,235.0 L 734.5,236.0 L 734.0,236.5 Z" fill="#111111" stroke="none"/>
  <ellipse cx="717" cy="221" rx="3" ry="2" fill="white" opacity="0.9"/>
</svg>